<svg xmlns="http://www.w3.org/2000/svg" version="1.1" xmlns:xlink="http://www.w3.org/1999/xlink" xmlns:svgjs="http://svgjs.com/svgjs" width="512" height="512"><svg width="512" height="512" viewBox="0 0 512 512" fill="none" xmlns="http://www.w3.org/2000/svg">
<path d="M256 505.2C397.385 505.2 512 393.45 512 255.6C512 117.75 397.385 6 256 6C114.615 6 0 117.75 0 255.6C0 393.45 114.615 505.2 256 505.2Z" fill="white"></path>
<path d="M476.165 230.166C494.643 284.104 456.904 351.581 400.575 367.523C351.861 381.28 304.603 374.729 258.8 355.294C237.635 346.231 217.478 334.548 195.864 326.796C175.931 319.699 154.877 313.257 133.936 311.838C102.356 309.654 76.3752 332.037 69.4321 362.063C68.7602 365.23 67.9763 368.287 66.7444 373.2C63.7208 369.488 61.4811 367.304 59.9133 364.793C45.4671 340.772 35.8363 315.004 32.1408 287.38C24.3017 228.747 67.1924 191.296 127.553 203.525C151.63 208.438 172.459 219.903 191.385 234.643C215.014 253.095 237.747 272.858 261.936 290.655C295.644 315.55 333.271 329.198 376.386 323.739C423.868 317.843 459.479 287.598 472.47 242.504C473.478 238.901 474.597 235.189 476.165 230.166Z" fill="#00B4ED"></path>
<path d="M436.846 379.107C413.441 413.392 382.308 438.286 343.785 454.227C275.362 482.506 208.17 478.903 142.994 444.401C121.381 432.936 104.135 416.886 99.0956 391.664C92.7124 359.563 114.662 336.088 147.474 342.311C164.607 345.587 180.957 352.903 197.307 359.345C221.496 368.953 244.678 381.182 269.426 389.152C325.979 407.168 382.42 409.788 436.846 379.107Z" fill="#107DC2"></path>
<path d="M303.251 291.964C334.943 283.011 355.437 266.415 363.948 238.026C369.547 219.465 367.531 201.449 358.461 184.307C337.183 144.454 296.42 134.845 242.443 159.194C246.25 152.643 248.266 148.057 251.29 144.235C268.2 122.725 291.717 112.353 318.481 109.186C358.125 104.491 393.96 113.881 423.637 140.741C453.201 167.492 460.704 200.685 448.497 237.59C436.403 274.385 407.958 292.947 370.107 298.406C348.718 301.464 327.552 299.607 303.251 291.964Z" fill="#DF889E"></path>
<path d="M414.797 101.324C366.979 77.6305 318.266 70.8609 270.224 95.4278C219.158 121.523 207.735 168.146 210.983 223.394C180.635 198.936 162.493 172.404 163.389 136.264C164.845 80.6877 206.728 41.0531 269.216 38.2142C326.664 35.5938 373.811 58.6321 413.678 97.7208C414.237 98.2667 414.126 99.1402 414.797 101.324Z" fill="#F1B687"></path>
<path d="M337.753 218.16C337.753 243.6 317.371 263.691 291.391 263.909C265.298 264.127 243.909 243.054 244.245 217.505C244.58 192.283 265.41 172.411 291.391 172.629C317.595 172.629 337.865 192.61 337.753 218.16Z" fill="#F0BE75"></path>
<path d="M171.116 54.3652C135.168 91.3794 131.137 132.979 143.679 179.384C105.156 167.046 70.4404 167.919 40.0921 194.997C36.7326 171.195 61.2575 145.208 98.213 132.433C98.8849 89.4141 129.009 61.0256 171.116 54.3652Z" fill="#C7906E"></path>
</svg><style>@media (prefers-color-scheme: light) { :root { filter: none; } }
</style></svg>