<svg width="64" height="84" viewBox="0 0 64 84" fill="none" xmlns="http://www.w3.org/2000/svg">
<path d="M0.646447 80.3536C0.451184 80.1583 0.451184 79.8417 0.646447 79.6464L3.82843 76.4645C4.02369 76.2692 4.34027 76.2692 4.53553 76.4645C4.7308 76.6597 4.7308 76.9763 4.53553 77.1716L1.70711 80L4.53553 82.8284C4.7308 83.0237 4.7308 83.3403 4.53553 83.5355C4.34027 83.7308 4.02369 83.7308 3.82843 83.5355L0.646447 80.3536ZM1 0C42.8594 0 63.8806 19.9583 63.7545 40.2531C63.6285 60.5408 42.3691 80.5 1 80.5L1 79.5C42.143 79.5 62.6336 59.7092 62.7546 40.2469C62.8754 20.7917 42.6406 1 1 1L1 0Z" fill="white"/>
</svg>
