<svg width="52" height="59" viewBox="0 0 52 59" fill="none" xmlns="http://www.w3.org/2000/svg">
<path d="M0.646447 3.64645C0.451184 3.84171 0.451184 4.15829 0.646447 4.35355L3.82843 7.53553C4.02369 7.7308 4.34027 7.7308 4.53553 7.53553C4.7308 7.34027 4.7308 7.02369 4.53553 6.82843L1.70711 4L4.53553 1.17157C4.7308 0.976311 4.7308 0.659728 4.53553 0.464466C4.34027 0.269204 4.02369 0.269204 3.82843 0.464466L0.646447 3.64645ZM1 58.5C18.9568 58.5 31.8572 55.1165 40.1283 49.9874C48.4102 44.8517 52.0787 37.9381 51.4263 30.9535C50.7764 23.9942 45.8499 17.1224 37.2843 12.0082C28.7116 6.88976 16.4513 3.5 1 3.5L1 4.5C16.3127 4.5 28.3863 7.86024 36.7716 12.8668C45.164 17.8776 49.8198 24.5058 50.4307 31.0465C51.0392 37.5619 47.647 44.1483 39.6013 49.1376C31.5448 54.1335 18.8505 57.5 1 57.5V58.5Z" fill="#5E60CE"/>
</svg>
