<svg width="70" height="60" viewBox="0 0 70 60" fill="none" xmlns="http://www.w3.org/2000/svg">
<path fill-rule="evenodd" clip-rule="evenodd" d="M59.9874 10.1923H3.01264C2.56802 10.1923 2.20758 10.5482 2.20758 10.9872V41.0128C2.20758 41.4518 2.56802 41.8077 3.01264 41.8077H59.9874C60.432 41.8077 60.7924 41.4518 60.7924 41.0128V10.9872C60.7924 10.5482 60.432 10.1923 59.9874 10.1923ZM3.01264 9C1.90109 9 1 9.88969 1 10.9872V41.0128C1 42.1103 1.90109 43 3.01264 43H59.9874C61.0989 43 62 42.1103 62 41.0128V10.9872C62 9.88969 61.0989 9 59.9874 9H3.01264ZM65.3984 12C65.7307 12 66 12.273 66 12.6097V46.3903C66 46.727 65.7307 47 65.3984 47H5.60158C5.26934 47 5 46.727 5 46.3903C5 46.0535 5.26934 45.7805 5.60158 45.7805H64.7968V12.6097C64.7968 12.273 65.0662 12 65.3984 12ZM25.282 21.3052C26.935 20.9457 28.459 21.622 29.6473 22.9575C29.4541 23.487 29.3078 24.0197 29.2037 24.5521C28.8143 23.9565 28.383 23.5268 27.9507 23.1427C27.7006 22.9205 27.3333 22.9624 27.1303 23.2364C26.9274 23.5104 26.9657 23.9127 27.2158 24.1349C27.8621 24.7092 28.439 25.3309 28.8708 26.5862C28.9004 26.6724 28.9453 26.7475 29.0007 26.8091C29.0181 28.3815 29.353 29.8698 29.8348 31.1617C28.9094 30.2317 27.9483 29.1234 27.1423 27.9008C25.7972 25.8604 24.9333 23.5788 25.282 21.3052ZM24.5849 20.24C26.7459 19.5849 28.7039 20.3299 30.1701 21.7604C31.4574 19.2458 33.9216 16.8715 38.1176 15.0493C38.2994 14.9703 38.5079 14.987 38.6752 15.0938C38.8424 15.2007 38.9467 15.3839 38.9541 15.5837C39.1659 21.297 38.6426 24.8403 37.4255 27.4879C36.2397 30.0675 34.4206 31.732 32.2005 33.6868C32.2425 34.5209 32.3259 35.3336 32.4101 36.155C32.4839 36.8746 32.5583 37.6009 32.6063 38.3542C32.6276 38.6882 32.3825 38.9767 32.059 38.9987C31.7354 39.0206 31.4559 38.7677 31.4346 38.4337C31.3927 37.7748 31.3238 37.1006 31.2531 36.4086L31.2531 36.4085L31.2531 36.4085C31.1696 35.5912 31.0836 34.7493 31.0365 33.879C31.03 33.8741 31.0235 33.869 31.0172 33.8638C29.6261 32.7241 27.6403 30.8458 26.138 28.5669C24.6408 26.2958 23.5689 23.5409 24.1701 20.6929C24.2156 20.4773 24.3746 20.3037 24.5849 20.24ZM32.18 32.0907C32.1894 31.7679 32.2079 31.4397 32.2376 31.1044C32.4626 28.56 33.3431 25.6475 35.8909 21.9578C36.0791 21.6853 36.0177 21.3069 35.7536 21.1126C35.4896 20.9183 35.123 20.9818 34.9348 21.2543C32.2809 25.0977 31.3144 28.2116 31.0683 30.9942L31.0664 31.0159C30.3817 29.3057 29.9701 27.187 30.3383 25.0206C30.8393 22.0731 32.8048 18.917 37.7826 16.5325C37.9047 21.6328 37.3752 24.7187 36.3372 26.9769C35.397 29.0222 34.0201 30.4387 32.18 32.0907ZM70 16.6097C70 16.273 69.7307 16 69.3984 16C69.0662 16 68.7968 16.273 68.7968 16.6097V49.7805H9.60158C9.26934 49.7805 9 50.0535 9 50.3903C9 50.727 9.26934 51 9.60158 51H69.3984C69.7307 51 70 50.727 70 50.3903V16.6097ZM7 14.6082C7 14.2723 7.27091 14 7.60509 14H22.3949C22.652 14 22.881 14.1633 22.966 14.4071C23.0509 14.651 22.9733 14.9222 22.7724 15.0834C20.5687 16.8517 17.8957 20.1238 17.0241 24.1592C16.163 28.1453 17.0379 32.9688 22.0799 37.9585C22.2549 38.1317 22.3084 38.394 22.2153 38.6224C22.1222 38.8508 21.901 39 21.6554 39H7.60509C7.27091 39 7 38.7277 7 38.3918V14.6082ZM8.21018 15.2163V37.7837H20.2333C15.7919 32.8807 14.9478 28.038 15.8414 23.9011C16.629 20.2554 18.7514 17.2215 20.7997 15.2163H8.21018ZM55.3949 38C55.7291 38 56 37.7277 56 37.3918L56 13.6082C56 13.2723 55.7291 13 55.3949 13L41.3446 13C41.099 13 40.8778 13.1492 40.7847 13.3776C40.6916 13.606 40.7451 13.8683 40.9201 14.0415C45.9621 19.0312 46.837 23.8547 45.9759 27.8408C45.1043 31.8762 42.4313 35.1483 40.2276 36.9166C40.0267 37.0778 39.9491 37.349 40.034 37.5929C40.119 37.8367 40.348 38 40.6051 38L55.3949 38ZM54.7898 14.2163L54.7898 36.7837L42.2003 36.7837C44.2486 34.7785 46.371 31.7446 47.1586 28.0989C48.0522 23.962 47.2081 19.1193 42.7667 14.2163L54.7898 14.2163Z" fill="#5DC07A"/>
</svg>
