<svg width="70" height="60" viewBox="0 0 70 60" fill="none" xmlns="http://www.w3.org/2000/svg">
<path fill-rule="evenodd" clip-rule="evenodd" d="M58.0234 44.2004C57.9154 44.2019 57.8006 44.262 57.7377 44.41C55.8058 48.9591 56.0053 51.026 56.4874 51.9248C56.9457 52.7794 57.7999 52.8039 57.9602 52.7995C57.9637 52.7994 57.9674 52.7993 57.9715 52.7992C57.9901 52.7987 58.0145 52.798 58.0392 52.7977C58.8044 52.7902 59.2176 52.5158 59.4631 52.1357C59.7348 51.7149 59.8657 51.0639 59.8341 50.1997C59.7713 48.478 59.0791 46.258 58.2915 44.3908C58.2328 44.2515 58.1285 44.199 58.0234 44.2004ZM56.6744 43.9276C57.183 42.7299 58.8274 42.658 59.356 43.9111C60.1614 45.8205 60.9234 48.2058 60.9946 50.1544C61.03 51.1253 60.8979 52.0757 60.429 52.802C59.9337 53.5689 59.1286 53.9874 58.0502 53.9979C58.0368 53.9981 58.0253 53.9984 58.0079 53.9989C58.0027 53.999 57.997 53.9992 57.9906 53.9994C57.7359 54.0062 56.2647 53.9853 55.4717 52.5067C54.7025 51.0724 54.7248 48.5184 56.6744 43.9276Z" fill="#5DC07A"/>
<path fill-rule="evenodd" clip-rule="evenodd" d="M37.3523 38.2258H29V37H50.3559C51.8162 37 53 38.1891 53 39.6559V56H51.7797V39.6559C51.7797 38.8661 51.1422 38.2258 50.3559 38.2258H38.5726V56H37.3523V38.2258Z" fill="#5DC07A"/>
<path fill-rule="evenodd" clip-rule="evenodd" d="M7 55.5C7 55.2239 7.26767 55 7.59786 55H62.4021C62.7323 55 63 55.2239 63 55.5C63 55.7761 62.7323 56 62.4021 56H7.59786C7.26767 56 7 55.7761 7 55.5Z" fill="#5DC07A"/>
<path fill-rule="evenodd" clip-rule="evenodd" d="M58.5 51C58.7761 51 59 51.2583 59 51.5769V55.4231C59 55.7417 58.7761 56 58.5 56C58.2239 56 58 55.7417 58 55.4231V51.5769C58 51.2583 58.2239 51 58.5 51Z" fill="#5DC07A"/>
<path fill-rule="evenodd" clip-rule="evenodd" d="M17 32.6541C17 30.636 18.5767 29 20.5217 29H22.4783C24.4233 29 26 30.636 26 32.6541V56H24.8261V48.6052H18.1739V56H17V32.6541ZM18.1739 47.3872H24.8261V32.6541C24.8261 31.3087 23.7749 30.218 22.4783 30.218H20.5217C19.2251 30.218 18.1739 31.3087 18.1739 32.6541V47.3872Z" fill="#5DC07A"/>
<path fill-rule="evenodd" clip-rule="evenodd" d="M12.5714 25.2152C11.8067 25.2152 11.1868 25.8499 11.1868 26.6329V56H10V26.6329C10 25.1788 11.1513 24 12.5714 24H25.4286C26.8487 24 28 25.1788 28 26.6329V56H26.8132V26.6329C26.8132 25.8499 26.1933 25.2152 25.4286 25.2152H12.5714Z" fill="#5DC07A"/>
<path fill-rule="evenodd" clip-rule="evenodd" d="M33.2818 18.107C32.3535 16.9536 30.6366 16.9165 29.6613 18.0287L23.0407 25.5784C22.821 25.8289 22.444 25.8502 22.1986 25.6259C21.9532 25.4016 21.9324 25.0167 22.1521 24.7662L28.7726 17.2165C30.2356 15.5482 32.811 15.6039 34.2034 17.3339L54.8644 43.0046C55.0735 43.2644 55.0367 43.6481 54.7822 43.8616C54.5277 44.075 54.1519 44.0375 53.9428 43.7777L33.2818 18.107Z" fill="#5DC07A"/>
<path fill-rule="evenodd" clip-rule="evenodd" d="M57.1783 3.00044C57.5067 2.98795 57.783 3.24332 57.7956 3.57081L57.9996 8.90759C58.0121 9.23508 57.756 9.51068 57.4277 9.52317C57.0993 9.53566 56.823 9.28029 56.8105 8.9528L56.6612 5.04759L44.2091 18.4514C42.7925 19.9764 40.3727 19.9715 38.9622 18.4409L32.9534 11.9203C32.0257 10.9135 30.4392 10.8947 29.4877 11.8792L20.8484 20.8184C20.7363 20.9344 20.5816 21 20.42 21H10.595C10.2664 21 10 20.7343 10 20.4066C10 20.0789 10.2664 19.8132 10.595 19.8132H20.1672L28.631 11.0555C30.0582 9.57882 32.438 9.60703 33.8296 11.1172L39.8383 17.6378C40.7786 18.6582 42.3918 18.6614 43.3363 17.6448L55.7883 4.24097L51.8728 4.38986C51.5445 4.40234 51.2681 4.14698 51.2556 3.81949C51.2431 3.492 51.4991 3.21639 51.8275 3.2039L57.1783 3.00044Z" fill="#5DC07A"/>
<path fill-rule="evenodd" clip-rule="evenodd" d="M54.7085 17.0039C56.0734 16.9457 57.4847 17.5468 58.3593 18.0907C58.6345 18.2619 58.7202 18.6259 58.5506 18.9038C58.3811 19.1816 58.0205 19.2681 57.7452 19.0969C56.9714 18.6157 55.7959 18.1404 54.7579 18.1847C54.2532 18.2062 53.8051 18.3489 53.4391 18.6489C53.0737 18.9484 52.7384 19.4472 52.5337 20.2747C52.4488 20.6181 52.4917 20.8433 52.5785 21.0122C52.6731 21.1965 52.8551 21.3812 53.1587 21.5692C53.6521 21.8748 54.3044 22.1002 55.0478 22.3572C55.2644 22.4321 55.4888 22.5097 55.7193 22.5927C56.6673 22.9342 57.7353 23.3761 58.3856 24.1648C58.7263 24.5779 58.9496 25.0806 58.9925 25.6858C59.0346 26.2804 58.9003 26.9375 58.5904 27.6682C57.903 29.2891 56.3814 29.9429 54.9353 29.9963C53.5122 30.049 51.996 29.5322 51.1537 28.6035C50.9353 28.3629 50.9516 27.9891 51.1901 27.7687C51.4285 27.5483 51.7988 27.5647 52.0171 27.8054C52.5696 28.4145 53.7162 28.8588 54.8925 28.8153C56.0458 28.7727 57.0603 28.2731 57.5141 27.2031C57.7748 26.5883 57.8497 26.1233 57.8247 25.7701C57.8004 25.4274 57.6801 25.1564 57.4859 24.9209C57.0663 24.4121 56.2989 24.0563 55.3258 23.7058C55.1408 23.6392 54.9472 23.5725 54.7496 23.5044C53.9858 23.2414 53.1622 22.9578 52.5465 22.5766C52.144 22.3273 51.7684 22.0026 51.5391 21.5562C51.3019 21.0944 51.2546 20.5676 51.3979 19.9883C51.6496 18.9706 52.0973 18.2264 52.7012 17.7314C53.3044 17.237 54.0118 17.0336 54.7085 17.0039Z" fill="#5DC07A"/>
<path fill-rule="evenodd" clip-rule="evenodd" d="M56.5009 14.9692C56.7766 14.9862 56.9822 15.268 56.9603 15.5987L55.8479 32.3618C55.826 32.6925 55.5848 32.9467 55.3091 32.9297C55.0335 32.9128 54.8279 32.631 54.8498 32.3003L55.9622 15.5372C55.9841 15.2065 56.2253 14.9523 56.5009 14.9692Z" fill="#5DC07A"/>
</svg>
