<svg width="75" height="45" viewBox="0 0 75 45" fill="none" xmlns="http://www.w3.org/2000/svg">
<path d="M29 29.8293L38 34.8009L29 39.7725V29.8293Z" fill="white"/>
<path d="M18 23.8635L18.5951 24.1913L27 28.8351L18 33.8067V23.8635Z" fill="white"/>
<path d="M28 29.8293V39.7725L19 34.8009L28 29.8293Z" fill="white"/>
<path d="M62.9507 30.7479C63.0393 31.8197 63.5307 32.8154 64.3225 33.5274C65.1143 34.2394 66.1455 34.6128 67.2011 34.5697C68.0294 34.5781 68.8477 34.3843 69.5872 34.0043C70.3268 33.6243 70.9661 33.0693 71.4515 32.3858L74.2824 34.5697C73.4905 35.5983 72.4735 36.4243 71.3125 36.9819C70.1515 37.5395 68.8786 37.8132 67.5954 37.7812C62.8167 37.7812 59 34.393 59 29.3268C59 24.2605 62.8561 20.8804 67.5875 20.8804C72.0034 20.8804 75 24.0357 75 29.6399V30.7479H62.9507ZM71.0572 27.729C71.0572 25.3766 69.48 23.8992 67.0355 23.8992C64.5909 23.8992 63.2504 25.4087 62.9507 27.729H71.0572Z" fill="white"/>
<path d="M57 21.287V35.5234C57 41.1634 54.2464 44.744 48.1195 44.744C45.2012 44.744 42.5418 44.1277 40.3138 42.1697L42.6673 38.9792C43.374 39.6906 44.2157 40.2554 45.1435 40.6411C46.0713 41.0267 47.0668 41.2255 48.0725 41.2258C51.8772 41.2258 53.054 39.0728 53.054 35.9837V34.837H52.9912C52.3661 35.5836 51.5772 36.1779 50.685 36.5741C49.7929 36.9703 48.8214 37.158 47.8449 37.1226C43.138 37.1226 40 33.5342 40 29.1034C40 24.4775 42.9105 20.8892 47.7665 20.8892C48.8301 20.8319 49.8901 21.0549 50.8392 21.5357C51.7884 22.0165 52.593 22.738 53.1717 23.6273H53.2344V21.287H57ZM43.9539 29.0878C43.9518 29.6809 44.0672 30.2687 44.2936 30.8174C44.52 31.3662 44.8528 31.8653 45.2731 32.2861C45.6935 32.707 46.193 33.0414 46.7433 33.2703C47.2936 33.4992 47.8839 33.618 48.4804 33.6201H48.5745C49.1538 33.6603 49.7353 33.5864 50.2858 33.4026C50.8363 33.2187 51.3448 32.9286 51.7821 32.5487C52.2195 32.1689 52.5771 31.7069 52.8344 31.1893C53.0917 30.6717 53.2436 30.1086 53.2815 29.5324C53.2933 29.3636 53.2933 29.1942 53.2815 29.0254C53.3503 27.8789 52.9597 26.752 52.1953 25.891C51.4309 25.03 50.3547 24.505 49.2021 24.4307C49.0194 24.4151 48.8357 24.4151 48.653 24.4307C48.0665 24.3992 47.4796 24.4838 46.9263 24.6794C46.3729 24.875 45.8641 25.1778 45.4292 25.5703C44.9944 25.9628 44.6421 26.4372 44.3929 26.966C44.1437 27.4948 44.0025 28.0675 43.9774 28.651C43.9774 28.8174 43.9774 28.9812 43.9774 29.1424" fill="white"/>
<path d="M0 13.9202H15.41V17.7603H4.13766V23.6253H14.8201V27.4655H4.13766V33.9436H16V37.7838H0V13.9202Z" fill="white"/>
<path d="M29 15.909V5.96582L38 10.9335L29 15.909Z" fill="white"/>
<path d="M38 21.8748L29 16.9032L38 11.9316V21.8748Z" fill="white"/>
<path d="M38 22.869L29 27.8406V17.8975L38 22.869Z" fill="white"/>
<path d="M29 28.8351L38 23.8635V33.8067L29 28.8351Z" fill="white"/>
<path d="M28 17.8975V27.8406L20.2403 23.5559L19 22.869L28 17.8975Z" fill="white"/>
<path d="M38 0V9.94317L29 4.97158L38 0Z" fill="white"/>
</svg>
