<svg width="70" height="60" viewBox="0 0 70 60" fill="none" xmlns="http://www.w3.org/2000/svg">
<path fill-rule="evenodd" clip-rule="evenodd" d="M15 3.58647C15 1.60572 16.6041 0 18.5829 0H47.0102C47.162 0 47.3081 0.0578725 47.4188 0.161851L56.8115 8.98401C56.9318 9.097 57 9.25477 57 9.4199V34.7579C57 35.0057 56.8495 35.2182 56.635 35.3088C57.1917 35.5565 57.6305 36.0629 57.7593 36.7324L57.9102 37.5168C58.0279 38.1285 58.4224 38.6452 58.9768 38.9136L59.6877 39.2578C60.8443 39.8179 61.1541 41.3362 60.3168 42.3413L59.8021 42.9591C59.4008 43.4408 59.2423 44.0809 59.3735 44.6896L59.5419 45.4701C59.8157 46.7399 58.8303 47.9497 57.5406 47.9268L56.748 47.9128C56.4899 47.9082 56.2363 47.9546 56 48.046V57.3946C56 58.8103 54.3195 59.4527 53.4565 58.3668C53.3568 58.2415 53.1782 58.2281 53.0627 58.3374L52.8539 58.535C51.7482 59.5811 49.9883 58.7466 50.0001 57.1817L50.0314 53H18.5829C16.6041 53 15 51.3943 15 49.4135V3.58647ZM55.4121 47C55.2133 47.0019 55.0384 47.1085 54.9346 47.2699C54.6701 47.4507 54.4304 47.6721 54.2254 47.9296L53.7244 48.5586C53.3984 48.968 52.783 48.9641 52.4746 48.5506L52.0008 47.9153C51.4096 47.1227 50.4817 46.6602 49.4922 46.6651L48.6992 46.669C48.183 46.6716 47.8098 46.1827 47.9411 45.6763L48.143 44.8982C48.3949 43.9273 48.1853 42.9002 47.5765 42.1214L47.0886 41.4972C46.771 41.091 46.921 40.4854 47.3932 40.2674L48.1187 39.9323C49.0239 39.5143 49.6905 38.696 49.9209 37.7199L50.1055 36.9377C50.2256 36.4286 50.7859 36.1622 51.2433 36.3967L51.9462 36.7571C52.8231 37.2067 53.8639 37.2134 54.76 36.7751L55.4781 36.4238C55.9455 36.1952 56.4941 36.4687 56.5924 36.9791L56.7433 37.7635C56.9316 38.7423 57.5628 39.5689 58.4498 39.9984L59.1607 40.3426C59.6234 40.5666 59.7473 41.174 59.4123 41.576L58.8977 42.1938C58.2556 42.9646 58.0019 43.9887 58.2119 44.9626L58.3803 45.7431C58.4898 46.251 58.0956 46.7349 57.5798 46.7258L56.7871 46.7117C56.3084 46.7033 55.8394 46.8044 55.4121 47ZM54.8348 49.0658V57.3946C54.8348 57.6643 54.5146 57.7867 54.3501 57.5798C53.8272 56.9218 52.89 56.8517 52.2838 57.4252L52.075 57.6228C51.7225 57.9563 51.1615 57.6902 51.1652 57.1913L51.1991 52.6656C51.2382 52.5862 51.2601 52.4968 51.2601 52.4023C51.2601 52.3109 51.2396 52.2244 51.203 52.147L51.2275 48.8889L51.5214 49.283C52.2922 50.3166 53.8308 50.3264 54.6459 49.303L54.8348 49.0658ZM50.0692 47.9544C49.8809 47.8957 49.6824 47.8653 49.4797 47.8663L48.6866 47.8702C47.3964 47.8766 46.4632 46.6546 46.7916 45.3886L46.9935 44.6104C47.1509 44.0036 47.0199 43.3617 46.6394 42.8749L46.1515 42.2507C45.3576 41.2352 45.7326 39.7212 46.913 39.1761L47.6385 38.8411C48.2043 38.5798 48.6209 38.0684 48.7649 37.4583L48.9495 36.6761C49.2498 35.4034 50.6506 34.7375 51.7941 35.3238L52.4969 35.6841C53.045 35.9652 53.6955 35.9693 54.2555 35.6954L54.9737 35.3441C55.2917 35.1886 55.6248 35.126 55.9461 35.1431C55.8585 35.039 55.8057 34.9047 55.8057 34.7579V10.0176H49.996C48.0172 10.0176 46.4131 8.41193 46.4131 6.43118V1.19549H18.5829C17.2637 1.19549 16.1943 2.26597 16.1943 3.58647V49.4135C16.1943 50.734 17.2637 51.8045 18.5829 51.8045H50.0404L50.0692 47.9544ZM47.6074 1.97832L54.8937 8.82215H49.996C48.6768 8.82215 47.6074 7.75168 47.6074 6.43118V1.97832ZM28.5926 8C28.2653 8 28 8.22386 28 8.5C28 8.77614 28.2653 9 28.5926 9H43.4074C43.7347 9 44 8.77614 44 8.5C44 8.22386 43.7347 8 43.4074 8H28.5926ZM22 14.5C22 14.2239 22.2667 14 22.5957 14H49.4043C49.7333 14 50 14.2239 50 14.5C50 14.7761 49.7333 15 49.4043 15H22.5957C22.2667 15 22 14.7761 22 14.5ZM22.5946 37.006C22.2662 37.0027 21.9977 37.2238 21.9949 37.5C21.9922 37.7761 22.2561 38.0026 22.5845 38.0059L43.3942 38.2159C43.7226 38.2192 43.991 37.9981 43.9938 37.7219C43.9966 37.4458 43.7327 37.2193 43.4043 37.216L22.5946 37.006ZM21.9949 44.5C21.9977 44.2238 22.2662 44.0027 22.5946 44.006L43.4043 44.216C43.7327 44.2193 43.9966 44.4458 43.9938 44.7219C43.991 44.9981 43.7226 45.2192 43.3942 45.2159L22.5845 45.0059C22.2561 45.0026 21.9922 44.7761 21.9949 44.5ZM52.5 45.8C53.7703 45.8 54.8 44.7703 54.8 43.5C54.8 42.2297 53.7703 41.2 52.5 41.2C51.2297 41.2 50.2 42.2297 50.2 43.5C50.2 44.7703 51.2297 45.8 52.5 45.8ZM52.5 47C54.433 47 56 45.433 56 43.5C56 41.567 54.433 40 52.5 40C50.567 40 49 41.567 49 43.5C49 45.433 50.567 47 52.5 47ZM41.7639 31.0355C41.995 31.0355 42.2061 31.0253 42.3974 31.0048C42.5926 30.9802 42.7759 30.9454 42.9472 30.9003C43.1185 30.8553 43.2799 30.802 43.4313 30.7406C43.5827 30.6751 43.7341 30.6014 43.8855 30.5195V28.5782H42.5587C42.483 28.5782 42.4213 28.5556 42.3735 28.5106C42.3296 28.4655 42.3077 28.4102 42.3077 28.3447V27.6689H44.9374V31.0478C44.7222 31.2075 44.4971 31.3468 44.262 31.4655C44.0309 31.5843 43.7819 31.6846 43.515 31.7666C43.252 31.8444 42.9691 31.9017 42.6663 31.9386C42.3635 31.9795 42.0348 32 41.6802 32C41.0587 32 40.4889 31.8915 39.9709 31.6744C39.453 31.4532 39.0067 31.1461 38.6322 30.7529C38.2577 30.3556 37.9649 29.8805 37.7537 29.3276C37.5465 28.7747 37.4429 28.1666 37.4429 27.5031C37.4429 26.8314 37.5445 26.2191 37.7477 25.6662C37.9549 25.1133 38.2477 24.6403 38.6262 24.2471C39.0087 23.8498 39.4689 23.5427 40.0068 23.3256C40.5487 23.1085 41.1543 23 41.8236 23C42.1623 23 42.4771 23.0266 42.7679 23.0799C43.0588 23.129 43.3277 23.2027 43.5747 23.301C43.8257 23.3952 44.0568 23.5119 44.268 23.6512C44.4792 23.7863 44.6764 23.9399 44.8597 24.1119L44.531 24.6526C44.4632 24.7631 44.3756 24.8184 44.268 24.8184C44.2042 24.8184 44.1345 24.7959 44.0588 24.7509C43.9592 24.6935 43.8477 24.6239 43.7241 24.542C43.6006 24.4601 43.4492 24.3823 43.2699 24.3085C43.0946 24.2307 42.8854 24.1652 42.6424 24.1119C42.4033 24.0587 42.1185 24.0321 41.7878 24.0321C41.3057 24.0321 40.8694 24.114 40.4789 24.2778C40.0885 24.4375 39.7558 24.6689 39.4809 24.972C39.206 25.271 38.9948 25.6355 38.8474 26.0655C38.7 26.4915 38.6262 26.9706 38.6262 27.5031C38.6262 28.0601 38.7019 28.5577 38.8533 28.9959C39.0087 29.43 39.2259 29.7986 39.5048 30.1017C39.7837 30.4048 40.1144 30.6362 40.4969 30.7959C40.8794 30.9556 41.3017 31.0355 41.7639 31.0355ZM27.2772 24.0689V23.0983H22V31.9017H27.2772V30.9311H23.1654V27.927H26.4943V26.9932H23.1654V24.0689H27.2772ZM36.0632 29.3031C36.2664 28.7625 36.368 28.1625 36.368 27.5031C36.368 26.8437 36.2664 26.2437 36.0632 25.7031C35.86 25.1625 35.5731 24.6997 35.2026 24.3147C34.8321 23.9256 34.3878 23.6266 33.8698 23.4177C33.3519 23.2048 32.7782 23.0983 32.1486 23.0983H28.9453V31.9017H32.1486C32.7782 31.9017 33.3519 31.7973 33.8698 31.5884C34.3878 31.3754 34.8321 31.0765 35.2026 30.6915C35.5731 30.3065 35.86 29.8437 36.0632 29.3031ZM34.9635 26.0532C35.107 26.4792 35.1787 26.9625 35.1787 27.5031C35.1787 28.0437 35.107 28.527 34.9635 28.9529C34.8201 29.3788 34.6169 29.7392 34.3539 30.0341C34.091 30.3249 33.7722 30.5481 33.3977 30.7038C33.0232 30.8594 32.6068 30.9372 32.1486 30.9372H30.1107V24.0628H32.1486C32.6068 24.0628 33.0232 24.1406 33.3977 24.2962C33.7722 24.4519 34.091 24.6771 34.3539 24.972C34.6169 25.2669 34.8201 25.6273 34.9635 26.0532ZM52 24.0689V23.0983H46.7228V31.9017H52V30.9311H47.8882V27.927H51.2171V26.9932H47.8882V24.0689H52Z" fill="#5DC07A"/>
</svg>
