<svg width="43" height="34" viewBox="0 0 43 34" fill="none" xmlns="http://www.w3.org/2000/svg">
<path d="M24.824 14.16C24.824 14.3627 24.76 14.5307 24.632 14.664C24.504 14.792 24.288 14.856 23.984 14.856H20.384L19.856 17.864C20.4533 17.736 21.0053 17.672 21.512 17.672C22.1093 17.672 22.6347 17.76 23.088 17.936C23.5467 18.112 23.9307 18.3547 24.24 18.664C24.5493 18.9733 24.7813 19.3387 24.936 19.76C25.096 20.1813 25.176 20.64 25.176 21.136C25.176 21.744 25.0693 22.2933 24.856 22.784C24.6427 23.2747 24.3493 23.696 23.976 24.048C23.608 24.3947 23.1733 24.6613 22.672 24.848C22.1707 25.0347 21.6293 25.128 21.048 25.128C20.712 25.128 20.3893 25.0933 20.08 25.024C19.7707 24.96 19.4827 24.872 19.216 24.76C18.9493 24.648 18.7013 24.52 18.472 24.376C18.2427 24.232 18.04 24.08 17.864 23.92L18.296 23.312C18.392 23.1733 18.52 23.104 18.68 23.104C18.7813 23.104 18.8987 23.1467 19.032 23.232C19.1707 23.312 19.336 23.4027 19.528 23.504C19.72 23.6053 19.944 23.6987 20.2 23.784C20.4613 23.864 20.7707 23.904 21.128 23.904C21.528 23.904 21.888 23.84 22.208 23.712C22.528 23.584 22.8 23.4027 23.024 23.168C23.2533 22.928 23.4293 22.6427 23.552 22.312C23.6747 21.9813 23.736 21.6107 23.736 21.2C23.736 20.8427 23.6827 20.52 23.576 20.232C23.4747 19.944 23.3173 19.6987 23.104 19.496C22.896 19.2933 22.6347 19.136 22.32 19.024C22.0053 18.912 21.6373 18.856 21.216 18.856C20.928 18.856 20.6293 18.88 20.32 18.928C20.0107 18.976 19.6907 19.0533 19.36 19.16L18.464 18.896L19.392 13.536H24.824V14.16Z" fill="black"/>
<path d="M4 15L20.9345 3.38779C21.2753 3.1541 21.7247 3.1541 22.0655 3.38779L39 15" stroke="black" stroke-width="1.2" stroke-linecap="round" stroke-linejoin="round"/>
<path d="M10 14V30C10 30.5523 10.4477 31 11 31H32C32.5523 31 33 30.5523 33 30V14" stroke="black" stroke-width="1.2" stroke-linecap="round" stroke-linejoin="round"/>
</svg>
