<svg width="43" height="34" viewBox="0 0 43 34" fill="none" xmlns="http://www.w3.org/2000/svg">
<path fill-rule="evenodd" clip-rule="evenodd" d="M9.51495 3.00002C9.51495 2.66865 9.78358 2.40002 10.1149 2.40002H33.1592C33.4906 2.40002 33.7592 2.66865 33.7592 3.00002V12.3764L37.5348 19.8083C37.5776 19.8925 37.5999 19.9856 37.5999 20.08V31C37.5999 31.3314 37.3313 31.6 36.9999 31.6C36.6685 31.6 36.3999 31.3314 36.3999 31V26.1427L6.5999 26.2773V31C6.5999 31.3314 6.33127 31.6 5.9999 31.6C5.66853 31.6 5.3999 31.3314 5.3999 31V20.08C5.3999 19.9798 5.425 19.8812 5.47291 19.7932L9.51495 12.3673V3.00002ZM10.4715 13.12L7.00962 19.48H36.0221L32.791 13.12H29.3698V14.76C29.3698 15.0914 29.1012 15.36 28.7698 15.36H14.5043C14.173 15.36 13.9043 15.0914 13.9043 14.76V13.12H10.4715ZM15.1043 14.16H21.0371V8.92002H15.1043V14.16ZM14.5043 7.72002C14.173 7.72002 13.9043 7.98865 13.9043 8.32002V11.92H10.7149V3.60002H32.5592V11.92H29.3698V8.32002C29.3698 7.98865 29.1012 7.72002 28.7698 7.72002H14.5043ZM22.2371 8.92002V14.16H28.1698V8.92002H22.2371ZM36.3999 20.68H6.5999V25.0773L36.3999 24.9427V20.68Z" fill="black"/>
</svg>
