<svg width="30" height="30" viewBox="0 0 30 30" fill="none" xmlns="http://www.w3.org/2000/svg">
<rect y="0.000488281" width="30" height="30" rx="6" fill="url(#paint0_linear_88_23400)"/>
<path d="M5.90137 23.7273L7.18753 19.0569C6.39237 17.686 5.97523 16.1335 5.97958 14.5464C5.97958 9.5732 10.0466 5.52979 15.0392 5.52979C17.4638 5.52979 19.7407 6.4682 21.4483 8.17206C23.1603 9.87592 24.1032 12.142 24.0989 14.5507C24.0989 19.5239 20.0318 23.5673 15.0349 23.5673H15.0305C13.5141 23.5673 12.0237 23.1868 10.6984 22.4689L5.90137 23.7273ZM10.9287 20.8386L11.2025 21.0029C12.3583 21.6862 13.6835 22.0451 15.0349 22.0494H15.0392C19.1889 22.0494 22.5694 18.6893 22.5694 14.555C22.5694 12.5528 21.7873 10.6716 20.3664 9.25319C18.9455 7.83475 17.051 7.05634 15.0392 7.05634C10.8896 7.05201 7.50908 10.4122 7.50908 14.5464C7.50908 15.9605 7.90449 17.34 8.66054 18.5336L8.83869 18.819L8.07829 21.5824L10.9287 20.8386Z" fill="white"/>
<path d="M6.21875 23.4119L7.46147 18.9014C6.69237 17.5824 6.28827 16.0818 6.28827 14.5509C6.29262 9.75074 10.2163 5.8457 15.0394 5.8457C17.3815 5.8457 19.5758 6.75385 21.2269 8.39717C22.8781 10.0405 23.7862 12.2287 23.7862 14.5553C23.7862 19.3555 19.8582 23.2605 15.0394 23.2605H15.0351C13.5708 23.2605 12.1325 22.8929 10.855 22.201L6.21875 23.4119Z" fill="url(#paint1_linear_88_23400)"/>
<path d="M5.90137 23.7273L7.18753 19.0569C6.39237 17.686 5.97523 16.1335 5.97958 14.5464C5.97958 9.5732 10.0466 5.52979 15.0392 5.52979C17.4638 5.52979 19.7407 6.4682 21.4483 8.17206C23.1603 9.87592 24.1032 12.142 24.0989 14.5507C24.0989 19.5239 20.0318 23.5673 15.0349 23.5673H15.0305C13.5141 23.5673 12.0237 23.1868 10.6984 22.4689L5.90137 23.7273ZM10.9287 20.8386L11.2025 21.0029C12.3583 21.6862 13.6835 22.0451 15.0349 22.0494H15.0392C19.1889 22.0494 22.5694 18.6893 22.5694 14.555C22.5694 12.5528 21.7873 10.6716 20.3664 9.25319C18.9455 7.83475 17.051 7.05634 15.0392 7.05634C10.8896 7.05201 7.50908 10.4122 7.50908 14.5464C7.50908 15.9605 7.90449 17.34 8.66054 18.5336L8.83869 18.819L8.07829 21.5824L10.9287 20.8386Z" fill="url(#paint2_linear_88_23400)"/>
<path fill-rule="evenodd" clip-rule="evenodd" d="M12.7752 10.7754C12.6057 10.3991 12.4276 10.3905 12.2668 10.3862C12.1365 10.3818 11.9844 10.3818 11.8323 10.3818C11.6802 10.3818 11.4369 10.4381 11.2283 10.6629C11.0198 10.8878 10.4375 11.4327 10.4375 12.5441C10.4375 13.6512 11.25 14.7236 11.363 14.875C11.476 15.0264 12.9316 17.3746 15.2302 18.2784C17.1421 19.0309 17.5331 18.8795 17.9459 18.8406C18.3587 18.8017 19.2842 18.2957 19.4754 17.7681C19.6623 17.2405 19.6623 16.7908 19.6058 16.6956C19.5493 16.6005 19.3972 16.5443 19.1713 16.4318C18.9453 16.3194 17.833 15.7745 17.6244 15.6967C17.4158 15.6231 17.2637 15.5842 17.116 15.8091C16.9639 16.034 16.5294 16.5399 16.3991 16.6913C16.2687 16.8427 16.134 16.86 15.9081 16.7475C15.6821 16.6351 14.9521 16.3972 14.0874 15.6275C13.4139 15.0307 12.9577 14.2912 12.8273 14.0663C12.697 13.8414 12.8143 13.7204 12.9273 13.6079C13.0272 13.5085 13.1532 13.3441 13.2662 13.2144C13.3792 13.0847 13.4183 12.9895 13.4921 12.8382C13.566 12.6868 13.5313 12.5571 13.4748 12.4446C13.4183 12.3365 12.9751 11.2208 12.7752 10.7754Z" fill="white"/>
<defs>
<linearGradient id="paint0_linear_88_23400" x1="14.9992" y1="29.999" x2="14.9992" y2="-0.000561341" gradientUnits="userSpaceOnUse">
<stop stop-color="#20B038"/>
<stop offset="1" stop-color="#60D66A"/>
</linearGradient>
<linearGradient id="paint1_linear_88_23400" x1="15.002" y1="23.411" x2="15.002" y2="5.84509" gradientUnits="userSpaceOnUse">
<stop stop-color="#20B038"/>
<stop offset="1" stop-color="#60D66A"/>
</linearGradient>
<linearGradient id="paint2_linear_88_23400" x1="15.0019" y1="23.7256" x2="15.0019" y2="5.52979" gradientUnits="userSpaceOnUse">
<stop stop-color="#F9F9F9"/>
<stop offset="1" stop-color="white"/>
</linearGradient>
</defs>
</svg>
