<svg width="43" height="34" viewBox="0 0 43 34" fill="none" xmlns="http://www.w3.org/2000/svg">
<path fill-rule="evenodd" clip-rule="evenodd" d="M21.5447 2.0158H39C39.9941 2.0158 40.8 2.82168 40.8 3.8158V21.6919H31.6536C31.5506 21.3954 31.4431 21.1033 31.3312 20.8171C30.6402 19.0508 29.7535 17.4405 28.633 16.3548C29.5365 16.3956 30.5086 16.8964 31.1828 17.4322C31.4422 17.6384 31.8196 17.5953 32.0258 17.3359C32.232 17.0765 32.1889 16.699 31.9295 16.4929C31.1714 15.8903 29.9622 15.2173 28.7 15.1565C28.7934 15.079 28.8904 15.005 28.9906 14.9362C29.5663 14.5407 30.1894 14.3522 30.8743 14.5805C31.1886 14.6853 31.5284 14.5154 31.6332 14.2011C31.738 13.8867 31.5681 13.5469 31.2538 13.4421C30.0942 13.0556 29.0778 13.4204 28.3111 13.9471C28.0807 14.1054 27.8675 14.2816 27.6729 14.4626C27.7122 14.081 27.7654 13.7603 27.823 13.497C27.8819 13.2281 27.9446 13.0225 28.0002 12.8749C28.0279 12.8012 28.0529 12.7444 28.0735 12.703C28.0837 12.6824 28.0922 12.6668 28.0988 12.6555C28.102 12.6499 28.1046 12.6457 28.1065 12.6427L28.1085 12.6397L28.1091 12.6388L28.1094 12.6384C28.302 12.3688 28.2395 11.994 27.9699 11.8014C27.7002 11.6088 27.3255 11.6713 27.1329 11.9409C26.9596 12.1835 26.7847 12.6286 26.6508 13.2404C26.5469 13.7146 26.4615 14.3183 26.4251 15.062C26.3002 15.0311 26.1732 15.006 26.0441 14.9871C25.2113 14.8655 24.3361 15.009 23.4306 15.4361C23.1309 15.5775 23.0026 15.9351 23.1439 16.2348C23.2853 16.5345 23.6429 16.6628 23.9426 16.5215C24.6663 16.18 25.3038 16.0917 25.8706 16.1745C25.9459 16.1855 26.0207 16.1997 26.095 16.2169C25.5298 16.8339 25.0974 17.7218 24.8231 18.9189C24.7491 19.2419 24.9509 19.5637 25.2739 19.6378C25.5969 19.7118 25.9187 19.51 25.9928 19.187C26.2475 18.0756 26.6281 17.3877 27.0305 16.9739C27.106 16.8962 27.1835 16.8269 27.2626 16.7655C27.344 16.8241 27.4249 16.8867 27.5053 16.9534C28.5651 17.8332 29.476 19.3687 30.2136 21.2542C30.2701 21.3986 30.3254 21.5445 30.3795 21.6919L12.8131 21.6919C12.8672 21.5445 12.9225 21.3986 12.979 21.2542C13.7166 19.3686 14.6275 17.8332 15.6873 16.9534C15.7676 16.8867 15.8483 16.8242 15.9296 16.7656C16.0086 16.827 16.0859 16.8961 16.1612 16.9736C16.5636 17.3874 16.9443 18.0753 17.199 19.1867C17.273 19.5097 17.5948 19.7115 17.9178 19.6375C18.2408 19.5635 18.4426 19.2417 18.3686 18.9187C18.0944 17.7218 17.6621 16.834 17.097 16.217C17.1715 16.1997 17.2465 16.1855 17.322 16.1745C17.8887 16.0917 18.5262 16.18 19.25 16.5214C19.5497 16.6628 19.9073 16.5344 20.0486 16.2347C20.19 15.935 20.0617 15.5774 19.762 15.4361C18.8565 15.0089 17.9813 14.8654 17.1485 14.9871C17.0192 15.006 16.892 15.0311 16.7669 15.0621C16.7306 14.3183 16.6451 13.7146 16.5413 13.2404C16.4073 12.6286 16.2324 12.1835 16.0591 11.9409C15.8665 11.6713 15.4918 11.6088 15.2221 11.8014C14.9525 11.994 14.89 12.3688 15.0826 12.6384C15.0826 12.6384 15.0836 12.6398 15.0855 12.6427L15.0885 12.6475L15.0932 12.6555C15.0998 12.6668 15.1084 12.6824 15.1186 12.703C15.1391 12.7444 15.1641 12.8012 15.1918 12.8749C15.2474 13.0225 15.3102 13.2281 15.369 13.497C15.4267 13.7603 15.4798 14.081 15.5191 14.4626C15.3245 14.2816 15.1113 14.1054 14.8809 13.9471C14.1142 13.4204 13.0978 13.0556 11.9382 13.4421C11.6239 13.5469 11.454 13.8867 11.5588 14.2011C11.6636 14.5154 12.0034 14.6853 12.3177 14.5805C13.0026 14.3522 13.6257 14.5407 14.2014 14.9362C14.3015 15.005 14.3984 15.0789 14.4917 15.1562C13.2296 15.2171 12.0203 15.8901 11.2623 16.4926C11.0029 16.6988 10.9597 17.0762 11.1659 17.3356C11.3721 17.5951 11.7495 17.6382 12.009 17.432C12.6834 16.8959 13.656 16.395 14.5598 16.3545C13.4392 17.4402 12.5524 19.0506 11.8614 20.817C11.7494 21.1033 11.642 21.3953 11.5389 21.6919H2.2V3.8158C2.2 2.82168 3.00589 2.0158 4 2.0158H21.4554C21.1449 2.03864 20.9 2.29781 20.9 2.61416V4.05276C20.9 4.38413 21.1687 4.65276 21.5 4.65276C21.8314 4.65276 22.1 4.38413 22.1 4.05276V2.61416C22.1 2.29781 21.8552 2.03864 21.5447 2.0158ZM2.2 22.8919V30.1842C2.2 31.1783 3.00589 31.9842 4 31.9842H9.68519C9.72827 29.5966 10.2003 26.0893 11.1528 22.8919H2.2ZM10.8853 31.9842H32.3072C32.2622 29.616 31.7713 26.0559 30.7854 22.8919L12.4072 22.8919C11.4212 26.0559 10.9304 29.6161 10.8853 31.9842ZM33.5074 31.9842H39C39.9941 31.9842 40.8 31.1783 40.8 30.1842V22.8919H32.0397C32.9922 26.0893 33.4643 29.5966 33.5074 31.9842ZM1 3.8158C1 2.15894 2.34315 0.815796 4 0.815796H39C40.6569 0.815796 42 2.15894 42 3.8158V30.1842C42 31.8411 40.6569 33.1842 39 33.1842H4C2.34315 33.1842 1 31.8411 1 30.1842V3.8158ZM25.6459 3.74956C25.4116 3.51525 25.0317 3.51525 24.7974 3.74956L23.754 4.79295C23.5197 5.02726 23.5197 5.40716 23.754 5.64147C23.9883 5.87579 24.3682 5.87579 24.6025 5.64147L25.6459 4.59809C25.8802 4.36378 25.8802 3.98388 25.6459 3.74956ZM22.8172 7.82893C22.8172 8.45728 22.3079 8.96665 21.6795 8.96665C21.0512 8.96665 20.5418 8.45728 20.5418 7.82893C20.5418 7.20059 21.0512 6.69121 21.6795 6.69121C22.3079 6.69121 22.8172 7.20059 22.8172 7.82893ZM24.0172 7.82893C24.0172 9.12002 22.9706 10.1666 21.6795 10.1666C20.3884 10.1666 19.3418 9.12002 19.3418 7.82893C19.3418 6.53784 20.3884 5.49121 21.6795 5.49121C22.9706 5.49121 24.0172 6.53784 24.0172 7.82893ZM25.0962 7.04902C24.7648 7.04902 24.4962 7.31765 24.4962 7.64902C24.4962 7.98039 24.7648 8.24902 25.0962 8.24902H26.5348C26.8662 8.24902 27.1348 7.98039 27.1348 7.64902C27.1348 7.31765 26.8662 7.04902 26.5348 7.04902H25.0962ZM24.6025 9.89788C24.3682 9.66356 23.9883 9.66356 23.754 9.89788C23.5197 10.1322 23.5197 10.5121 23.754 10.7464L24.7974 11.7898C25.0317 12.0241 25.4116 12.0241 25.6459 11.7898C25.8802 11.5555 25.8802 11.1756 25.6459 10.9413L24.6025 9.89788ZM21.5 10.6455C21.8314 10.6455 22.1 10.9141 22.1 11.2455V12.6841C22.1 13.0155 21.8314 13.2841 21.5 13.2841C21.1687 13.2841 20.9 13.0155 20.9 12.6841V11.2455C20.9 10.9141 21.1687 10.6455 21.5 10.6455ZM23.6577 28.2684C23.3264 28.2684 23.0577 28.5371 23.0577 28.8684C23.0577 29.1998 23.3264 29.4684 23.6577 29.4684H24.5022C24.6798 29.4684 24.8478 29.5489 24.959 29.6873C25.6094 30.4968 26.8106 30.5828 27.5697 29.8743L27.7644 29.6925C27.9187 29.5485 28.1219 29.4684 28.333 29.4684H29.0525C29.3838 29.4684 29.6525 29.1998 29.6525 28.8684C29.6525 28.5371 29.3838 28.2684 29.0525 28.2684H28.333C27.8179 28.2684 27.3221 28.4639 26.9456 28.8153L26.7509 28.997C26.5019 29.2294 26.1078 29.2012 25.8944 28.9357C25.5554 28.5138 25.0434 28.2684 24.5022 28.2684H23.6577ZM13.3473 28.8684C13.3473 28.5371 13.6159 28.2684 13.9473 28.2684H14.7918C15.333 28.2684 15.845 28.5138 16.1839 28.9357C16.3973 29.2012 16.7914 29.2294 17.0405 28.997L17.2352 28.8153C17.6117 28.4639 18.1075 28.2684 18.6225 28.2684H19.342C19.6734 28.2684 19.942 28.5371 19.942 28.8684C19.942 29.1998 19.6734 29.4684 19.342 29.4684H18.6225C18.4114 29.4684 18.2083 29.5485 18.054 29.6925L17.8592 29.8743C17.1001 30.5828 15.899 30.4968 15.2485 29.6873C15.1373 29.5489 14.9693 29.4684 14.7918 29.4684H13.9473C13.6159 29.4684 13.3473 29.1998 13.3473 28.8684ZM17.1024 24.9452C16.8085 24.7922 16.4462 24.9063 16.2931 25.2002C16.14 25.4941 16.2541 25.8564 16.548 26.0095L17.7614 26.6416C18.6658 27.1126 19.7529 27.0643 20.6119 26.5148C21.131 26.1827 21.7921 26.168 22.3255 26.4767L22.4319 26.5383C23.3552 27.0727 24.4906 27.0858 25.426 26.5729L26.4646 26.0035C26.7551 25.8442 26.8615 25.4795 26.7022 25.1889C26.5429 24.8984 26.1782 24.792 25.8876 24.9513L24.8491 25.5207C24.2817 25.8318 23.593 25.8238 23.033 25.4997L22.9266 25.4381C22.0048 24.9047 20.8624 24.93 19.9652 25.5039C19.4682 25.8219 18.8391 25.8499 18.3158 25.5773L17.1024 24.9452ZM19.4975 9.89788C19.2632 9.66356 18.8833 9.66356 18.649 9.89788L17.6056 10.9413C17.3713 11.1756 17.3713 11.5555 17.6056 11.7898C17.8399 12.0241 18.2198 12.0241 18.4541 11.7898L19.4975 10.7464C19.7318 10.5121 19.7318 10.1322 19.4975 9.89788ZM16.2252 7.64902C16.2252 7.31765 16.4938 7.04902 16.8252 7.04902H18.2638C18.5952 7.04902 18.8638 7.31765 18.8638 7.64902C18.8638 7.98039 18.5952 8.24902 18.2638 8.24902H16.8252C16.4938 8.24902 16.2252 7.98039 16.2252 7.64902ZM18.4541 3.74956C18.2198 3.51525 17.8399 3.51525 17.6055 3.74956C17.3712 3.98388 17.3712 4.36378 17.6055 4.59809L18.6489 5.64147C18.8832 5.87579 19.2631 5.87579 19.4974 5.64147C19.7318 5.40716 19.7318 5.02726 19.4974 4.79295L18.4541 3.74956Z" fill="black"/>
</svg>
