<svg width="48" height="48" viewBox="0 0 48 48" fill="none" xmlns="http://www.w3.org/2000/svg">
<circle cx="24.4014" cy="24.4014" r="20.01" fill="#5E60CE"/>
<mask id="mask0_470_2637" style="mask-type:alpha" maskUnits="userSpaceOnUse" x="4" y="4" width="41" height="41">
<circle cx="24.4014" cy="24.4014" r="19.01" fill="white" stroke="#CDCDCD" stroke-width="2"/>
</mask>
<g mask="url(#mask0_470_2637)">
<path d="M13.4654 17.203C14.4152 16.9985 15.3149 17.6632 15.4647 18.584C15.4647 18.6351 16.4644 23.6989 17.5143 26.3073C18.3641 28.3531 19.814 29.325 22.0131 29.325H26.8121C29.0117 29.325 30.5114 28.3531 31.3109 26.3073C32.3608 23.6989 33.3605 18.6351 33.3605 18.584C33.5603 17.6121 34.4602 16.9985 35.3598 17.203C36.3097 17.4074 36.9094 18.3282 36.7096 19.2487C36.6598 19.4531 35.6597 24.7217 34.4602 27.637C33.4606 30.0409 31.8109 31.6265 29.6612 32.3426C29.3613 32.445 29.1113 32.7518 29.1113 33.1097L28.8613 46.4082L30.361 63.2359C30.4611 64.4636 29.5611 65.5889 28.3617 65.6909C27.1619 65.7933 26.062 64.8725 25.9623 63.6452L24.4626 47.1755H24.3127L22.8129 63.6452C22.7129 64.8215 21.763 65.6909 20.6134 65.6909H20.4136C19.2138 65.5885 18.3141 64.4633 18.4142 63.2359L19.9139 46.4082L19.6639 33.1097C19.6639 32.7515 19.4139 32.4446 19.114 32.3426C16.9145 31.6266 15.2649 29.9896 14.315 27.637C13.1152 24.6704 12.1154 19.4531 12.0656 19.2487C11.9655 18.2772 12.5653 17.3563 13.4653 17.203H13.4654Z" fill="white"/>
<path d="M19.7182 22.6984C19.7182 25.285 21.8147 27.3816 24.4014 27.3816C26.988 27.3816 29.0846 25.285 29.0846 22.6984C29.0846 20.1117 26.988 18.0152 24.4014 18.0152C21.8147 18.0152 19.7182 20.1117 19.7182 22.6984Z" fill="white"/>
</g>
<path fill-rule="evenodd" clip-rule="evenodd" d="M24.4014 47.0499C36.9098 47.0499 47.0499 36.9098 47.0499 24.4014C47.0499 11.8929 36.9098 1.75286 24.4014 1.75286C11.8929 1.75286 1.75286 11.8929 1.75286 24.4014C1.75286 36.9098 11.8929 47.0499 24.4014 47.0499ZM24.4014 47.9014C37.3801 47.9014 47.9014 37.3801 47.9014 24.4014C47.9014 11.4227 37.3801 0.901367 24.4014 0.901367C11.4227 0.901367 0.901367 11.4227 0.901367 24.4014C0.901367 37.3801 11.4227 47.9014 24.4014 47.9014Z" fill="#5E60CE"/>
</svg>
