<svg width="47" height="47" viewBox="0 0 47 47" fill="none" xmlns="http://www.w3.org/2000/svg">
<path fill-rule="evenodd" clip-rule="evenodd" d="M45 23.5C45 35.3741 35.3741 45 23.5 45C11.6259 45 2 35.3741 2 23.5C2 11.6259 11.6259 2 23.5 2C35.3741 2 45 11.6259 45 23.5ZM47 23.5C47 36.4787 36.4787 47 23.5 47C10.5213 47 0 36.4787 0 23.5C0 10.5213 10.5213 0 23.5 0C36.4787 0 47 10.5213 47 23.5ZM25.6213 21.3764C26.7053 18.6482 26.145 15.4145 23.9345 13.2039C22.062 11.3313 19.4525 10.6426 17.0349 11.1359C16.8248 11.1785 16.7487 11.4434 16.9009 11.5957L20.9475 15.6424L19.7479 19.75L15.6404 20.9497L11.5968 16.906C11.4446 16.7538 11.1797 16.8299 11.1371 17.04C10.6408 19.4548 11.3319 22.0643 13.2045 23.9369C15.4149 26.1476 18.6456 26.7108 21.3768 25.6238L30.8948 35.1393C32.0671 36.3116 33.9671 36.3116 35.1393 35.1393C36.3116 33.9671 36.3116 32.067 35.1393 30.8947L25.6213 21.3764Z" fill="#CDCDCD"/>
</svg>
