<svg width="48" height="48" viewBox="0 0 48 48" fill="none" xmlns="http://www.w3.org/2000/svg">
<path fill-rule="evenodd" clip-rule="evenodd" d="M47.0499 24.4014C47.0499 36.9098 36.9098 47.0499 24.4014 47.0499C11.8929 47.0499 1.75286 36.9098 1.75286 24.4014C1.75286 11.8929 11.8929 1.75286 24.4014 1.75286C36.9098 1.75286 47.0499 11.8929 47.0499 24.4014ZM47.9014 24.4014C47.9014 37.3801 37.3801 47.9014 24.4014 47.9014C11.4227 47.9014 0.901367 37.3801 0.901367 24.4014C0.901367 11.4227 11.4227 0.901367 24.4014 0.901367C37.3801 0.901367 47.9014 11.4227 47.9014 24.4014ZM44.4114 24.4014C44.4114 35.4526 35.4526 44.4114 24.4014 44.4114C13.3501 44.4114 4.39132 35.4526 4.39132 24.4014C4.39132 13.3501 13.3501 4.39132 24.4014 4.39132C35.4526 4.39132 44.4114 13.3501 44.4114 24.4014ZM17.4479 17.2487V21.4198C18.083 21.4849 18.6544 21.7782 19.0672 22.2344C19.5752 22.7232 19.8927 23.4401 19.8927 24.2221V26.7312H28.9097V24.2221C28.9097 23.4401 29.2272 22.7232 29.7352 22.2344C30.148 21.7781 30.7196 21.4849 31.3545 21.4198V17.2487C31.3545 16.5318 31.037 15.8801 30.5925 15.3913C30.1162 14.9025 29.4812 14.6092 28.7509 14.6092H20.0512C19.3209 14.6092 18.6859 14.9025 18.2096 15.3913C17.7651 15.8801 17.4476 16.5318 17.4476 17.2487H17.4479ZM18.6227 22.6906C18.2417 22.2997 17.7019 22.0715 17.1304 22.0715C16.5907 22.0715 16.0509 22.3322 15.7017 22.7233C15.2889 23.1143 15.035 23.6683 15.035 24.2223C15.035 24.7437 15.1619 25.1673 15.3842 25.4931C15.6382 25.8189 15.9875 26.0797 16.4002 26.2426C16.559 26.2752 16.6542 26.4055 16.6542 26.5684V34.1935H18.3052L18.8768 30.3159C18.9086 30.1529 19.0356 30.0226 19.1942 30.0226H29.6083C29.7671 30.0226 29.8941 30.1529 29.9258 30.3159L30.4973 34.1935H32.1484V26.5684C32.1484 26.4381 32.2437 26.3077 32.3707 26.2426C32.7834 26.1122 33.1644 25.8516 33.4185 25.4931C33.6408 25.1673 33.7678 24.7437 33.7678 24.2223C33.7678 23.6683 33.5138 23.1144 33.101 22.7233C32.7518 22.3323 32.212 22.0715 31.6723 22.0715C31.1007 22.0715 30.561 22.2997 30.18 22.6906C29.799 23.0816 29.5768 23.6357 29.5768 24.2221V27.0896C29.5768 27.2526 29.418 27.4155 29.2593 27.4155H19.5438C19.385 27.4155 19.2263 27.2525 19.2263 27.0896V24.2221C19.2263 23.6356 19.004 23.0816 18.6231 22.6906H18.6227Z" fill="#5E60CE"/>
</svg>
