<svg width="48" height="48" viewBox="0 0 48 48" fill="none" xmlns="http://www.w3.org/2000/svg">
<path fill-rule="evenodd" clip-rule="evenodd" d="M46.7475 24.099C46.7475 36.6074 36.6074 46.7475 24.099 46.7475C11.5906 46.7475 1.45049 36.6074 1.45049 24.099C1.45049 11.5906 11.5906 1.45049 24.099 1.45049C36.6074 1.45049 46.7475 11.5906 46.7475 24.099ZM47.599 24.099C47.599 37.0777 37.0777 47.599 24.099 47.599C11.1203 47.599 0.598999 37.0777 0.598999 24.099C0.598999 11.1203 11.1203 0.598999 24.099 0.598999C37.0777 0.598999 47.599 11.1203 47.599 24.099ZM24.099 44.1091C35.1503 44.1091 44.1091 35.1503 44.1091 24.099C44.1091 13.0478 35.1503 4.08896 24.099 4.08896C13.0478 4.08896 4.08896 13.0478 4.08896 24.099C4.08896 35.1503 13.0478 44.1091 24.099 44.1091ZM37.7229 27.9308H28.3565V33.8912H37.7229V27.9308ZM17.2871 27.9308H27.505V33.8912H17.2871V27.9308ZM31.7624 21.1188H21.5445V27.0793H31.7624V21.1188ZM10.4752 21.1188H20.6931V27.0793H10.4752V21.1188ZM34.3169 14.3069H24.9505V20.2673H34.3169V14.3069ZM14.7326 14.3069H24.099V20.2673H14.7326V14.3069Z" fill="#5E60CE"/>
</svg>
