<svg width="48" height="48" viewBox="0 0 48 48" fill="none" xmlns="http://www.w3.org/2000/svg">
<path fill-rule="evenodd" clip-rule="evenodd" d="M47.0499 24.4014C47.0499 36.9098 36.9098 47.0499 24.4014 47.0499C11.8929 47.0499 1.75286 36.9098 1.75286 24.4014C1.75286 11.8929 11.8929 1.75286 24.4014 1.75286C36.9098 1.75286 47.0499 11.8929 47.0499 24.4014ZM47.9014 24.4014C47.9014 37.3801 37.3801 47.9014 24.4014 47.9014C11.4227 47.9014 0.901367 37.3801 0.901367 24.4014C0.901367 11.4227 11.4227 0.901367 24.4014 0.901367C37.3801 0.901367 47.9014 11.4227 47.9014 24.4014ZM44.4114 24.4014C44.4114 35.4526 35.4526 44.4114 24.4014 44.4114C13.3501 44.4114 4.39132 35.4526 4.39132 24.4014C4.39132 13.3501 13.3501 4.39132 24.4014 4.39132C35.4526 4.39132 44.4114 13.3501 44.4114 24.4014ZM24.7713 15.6344C26.6536 17.5167 27.1306 20.2701 26.2076 22.5932L34.3122 30.6979C35.3103 31.6961 35.3103 33.314 34.3122 34.3122C33.314 35.3104 31.6961 35.3104 30.698 34.3122L22.5935 26.2098C20.2679 27.1354 17.517 26.6558 15.6349 24.7734C14.0404 23.1789 13.4518 20.9569 13.8744 18.9008C13.9107 18.7219 14.1363 18.657 14.2659 18.7867L17.709 22.2298L21.2065 21.2083L22.228 17.7107L18.7823 14.265C18.6527 14.1353 18.7175 13.9098 18.8964 13.8735C20.955 13.4534 23.1769 14.0398 24.7713 15.6344Z" fill="#5E60CE"/>
</svg>
