<svg width="43" height="34" viewBox="0 0 43 34" fill="none" xmlns="http://www.w3.org/2000/svg">
<path fill-rule="evenodd" clip-rule="evenodd" d="M21.7262 3.88266C21.5898 3.78918 21.4101 3.78918 21.2737 3.88266L4.33928 15.4949C4.06598 15.6823 3.69252 15.6126 3.50512 15.3393C3.31772 15.0661 3.38735 14.6926 3.66064 14.5052L20.5951 2.89298C21.1404 2.51907 21.8595 2.51907 22.4048 2.89298L39.3393 14.5052C39.6126 14.6926 39.6822 15.0661 39.4948 15.3393C39.3074 15.6126 38.9339 15.6823 38.6606 15.4949L21.7262 3.88266ZM24.2239 20.864H25.9599V21.68C25.9599 21.7653 25.9333 21.8373 25.8799 21.896C25.8319 21.9547 25.7546 21.984 25.6479 21.984H24.2239V25H22.9679V21.984H17.8879C17.7813 21.984 17.6879 21.9547 17.6079 21.896C17.5333 21.832 17.4853 21.7547 17.4639 21.664L17.3199 20.936L22.8959 13.536H24.2239V20.864ZM22.9679 16.136C22.9679 15.9973 22.9706 15.848 22.9759 15.688C22.9866 15.528 23.0053 15.3627 23.0319 15.192L18.8639 20.864H22.9679V16.136ZM10.6 14C10.6 13.6687 10.3313 13.4 9.99996 13.4C9.66859 13.4 9.39996 13.6687 9.39996 14V30C9.39996 30.8837 10.1163 31.6 11 31.6H32C32.8836 31.6 33.6 30.8837 33.6 30V14C33.6 13.6687 33.3313 13.4 33 13.4C32.6686 13.4 32.4 13.6687 32.4 14V30C32.4 30.2209 32.2209 30.4 32 30.4H11C10.779 30.4 10.6 30.2209 10.6 30V14Z" fill="black"/>
</svg>
