<svg width="47" height="47" viewBox="0 0 47 47" fill="none" xmlns="http://www.w3.org/2000/svg">
<path fill-rule="evenodd" clip-rule="evenodd" d="M23.5 45C35.3741 45 45 35.3741 45 23.5C45 11.6259 35.3741 2 23.5 2C11.6259 2 2 11.6259 2 23.5C2 35.3741 11.6259 45 23.5 45ZM23.5 47C36.4787 47 47 36.4787 47 23.5C47 10.5213 36.4787 0 23.5 0C10.5213 0 0 10.5213 0 23.5C0 36.4787 10.5213 47 23.5 47Z" fill="#CDCDCD"/>
<mask id="mask0_467_1946" style="mask-type:alpha" maskUnits="userSpaceOnUse" x="0" y="-2" width="47" height="47">
<circle cx="23.5" cy="21.5" r="22.5" fill="white" stroke="#CDCDCD" stroke-width="2"/>
</mask>
<g mask="url(#mask0_467_1946)">
<path d="M10.6567 15.0461C11.7722 14.806 12.8287 15.5866 13.0047 16.6681C13.0047 16.728 14.1788 22.675 15.4118 25.7384C16.4098 28.1409 18.1125 29.2823 20.6952 29.2823H26.3312C28.9144 29.2823 30.6756 28.1409 31.6146 25.7384C32.8477 22.675 34.0217 16.728 34.0217 16.6681C34.2563 15.5267 35.3132 14.806 36.3698 15.0461C37.4853 15.2862 38.1896 16.3676 37.9549 17.4486C37.8964 17.6887 36.7219 23.8762 35.3132 27.2999C34.1392 30.1232 32.2018 31.9853 29.6772 32.8263C29.325 32.9465 29.0314 33.3069 29.0314 33.7271L28.7378 49.345L30.4991 69.1077C30.6166 70.5494 29.5597 71.8711 28.151 71.9909C26.742 72.1111 25.4503 71.0297 25.3332 69.5883L23.5719 50.2462H23.3958L21.6345 69.5883C21.517 70.9698 20.4015 71.9909 19.0513 71.9909H18.8167C17.4076 71.8706 16.351 70.5491 16.4686 69.1077L18.2299 49.345L17.9363 33.7271C17.9363 33.3064 17.6427 32.9461 17.2905 32.8263C14.7073 31.9853 12.77 30.0629 11.6545 27.2999C10.2454 23.8159 9.07128 17.6887 9.01278 17.4486C8.89525 16.3077 9.59961 15.2262 10.6566 15.0461H10.6567Z" fill="#CDCDCD"/>
<path d="M18 21.5C18 24.5378 20.4622 27 23.5 27C26.5378 27 29 24.5378 29 21.5C29 18.4622 26.5378 16 23.5 16C20.4622 16 18 18.4622 18 21.5Z" fill="#CDCDCD"/>
</g>
</svg>
