<svg width="47" height="47" viewBox="0 0 47 47" fill="none" xmlns="http://www.w3.org/2000/svg">
<path fill-rule="evenodd" clip-rule="evenodd" d="M23.5 47C36.4787 47 47 36.4787 47 23.5C47 10.5213 36.4787 0 23.5 0C10.5213 0 0 10.5213 0 23.5C0 36.4787 10.5213 47 23.5 47ZM32.7572 19.6532C33.1179 19.2351 33.0714 18.6036 32.6532 18.2428C32.2351 17.8821 31.6036 17.9286 31.2428 18.3468L21.5862 29.5396L16.7002 24.7476C16.3059 24.3609 15.6728 24.367 15.2861 24.7613C14.8993 25.1556 14.9055 25.7887 15.2998 26.1755L20.9468 31.7139C21.1441 31.9074 21.4126 32.0106 21.6887 31.9991C21.9647 31.9876 22.2237 31.8624 22.4042 31.6532L32.7572 19.6532Z" fill="#5DC07A"/>
</svg>
