<svg width="30" height="30" viewBox="0 0 30 30" fill="none" xmlns="http://www.w3.org/2000/svg">
<path d="M7.60722 29.8944C5.8231 29.8133 4.85392 29.5163 4.20929 29.2649C3.35513 28.9323 2.74616 28.5365 2.10509 27.8963C1.46402 27.2561 1.06726 26.6471 0.73647 25.793C0.485036 25.1483 0.18813 24.1792 0.106993 22.3951C0.0178322 20.4665 0 19.8878 0 15.0018C0 10.1158 0.0196154 9.53804 0.106102 7.6077C0.187238 5.82359 0.485927 4.8562 0.735578 4.20978C1.06815 3.35562 1.46492 2.74665 2.1042 2.10469C2.74438 1.46451 3.35334 1.06685 4.2084 0.736067C4.85303 0.484632 5.82221 0.187726 7.60632 0.10659C9.53577 0.0183205 10.1153 0.000488281 14.9996 0.000488281C19.8856 0.000488281 20.4633 0.0201037 22.3937 0.10659C24.1778 0.187726 25.1452 0.486416 25.7916 0.736067C26.6458 1.06685 27.2547 1.46451 27.8958 2.10469C28.5369 2.74486 28.9319 3.35472 29.2644 4.20889C29.5159 4.85352 29.8128 5.8227 29.8939 7.60681C29.9822 9.53715 30 10.1149 30 15.0009C30 19.8852 29.9822 20.4647 29.8939 22.3951C29.8128 24.1792 29.5141 25.1483 29.2644 25.793C28.9319 26.6471 28.536 27.2561 27.8958 27.8963C27.2556 28.5365 26.6458 28.9323 25.7916 29.2649C25.147 29.5163 24.1778 29.8133 22.3937 29.8944C20.4651 29.9827 19.8856 30.0005 14.9996 30.0005C10.1153 30.0005 9.53577 29.9835 7.60722 29.8944Z" fill="url(#paint0_radial_88_23399)"/>
<path d="M7.60722 29.8944C5.8231 29.8133 4.85392 29.5163 4.20929 29.2649C3.35513 28.9323 2.74616 28.5365 2.10509 27.8963C1.46402 27.2561 1.06726 26.6471 0.73647 25.793C0.485036 25.1483 0.18813 24.1792 0.106993 22.3951C0.0178322 20.4665 0 19.8878 0 15.0018C0 10.1158 0.0196154 9.53804 0.106102 7.6077C0.187238 5.82359 0.485927 4.8562 0.735578 4.20978C1.06815 3.35562 1.46492 2.74665 2.1042 2.10469C2.74438 1.46451 3.35334 1.06685 4.2084 0.736067C4.85303 0.484632 5.82221 0.187726 7.60632 0.10659C9.53577 0.0183205 10.1153 0.000488281 14.9996 0.000488281C19.8856 0.000488281 20.4633 0.0201037 22.3937 0.10659C24.1778 0.187726 25.1452 0.486416 25.7916 0.736067C26.6458 1.06685 27.2547 1.46451 27.8958 2.10469C28.5369 2.74486 28.9319 3.35472 29.2644 4.20889C29.5159 4.85352 29.8128 5.8227 29.8939 7.60681C29.9822 9.53715 30 10.1149 30 15.0009C30 19.8852 29.9822 20.4647 29.8939 22.3951C29.8128 24.1792 29.5141 25.1483 29.2644 25.793C28.9319 26.6471 28.536 27.2561 27.8958 27.8963C27.2556 28.5365 26.6458 28.9323 25.7916 29.2649C25.147 29.5163 24.1778 29.8133 22.3937 29.8944C20.4651 29.9827 19.8856 30.0005 14.9996 30.0005C10.1153 30.0005 9.53577 29.9835 7.60722 29.8944Z" fill="url(#paint1_radial_88_23399)"/>
<path d="M11.5964 14.8942C11.5964 13.0729 13.0724 11.5961 14.8938 11.5961C16.7151 11.5961 18.1919 13.0729 18.1919 14.8942C18.1919 16.7156 16.7151 18.1924 14.8938 18.1924C13.0724 18.1924 11.5964 16.7156 11.5964 14.8942ZM9.81343 14.8942C9.81343 17.7001 12.0879 19.9746 14.8938 19.9746C17.6996 19.9746 19.9741 17.7001 19.9741 14.8942C19.9741 12.0884 17.6996 9.81392 14.8938 9.81392C12.0879 9.81392 9.81351 12.0882 9.81351 14.8942M18.988 9.61248C18.9879 9.8473 19.0575 10.0769 19.1878 10.2722C19.3182 10.4675 19.5036 10.6197 19.7205 10.7096C19.9374 10.7996 20.1761 10.8232 20.4064 10.7775C20.6368 10.7318 20.8483 10.6188 21.0144 10.4528C21.1806 10.2868 21.2937 10.0753 21.3396 9.84504C21.3855 9.61476 21.3621 9.37603 21.2723 9.15905C21.1826 8.94208 21.0305 8.75659 20.8353 8.62606C20.6401 8.49552 20.4106 8.4258 20.1757 8.4257H20.1753C19.8605 8.42585 19.5587 8.55092 19.3361 8.77344C19.1135 8.99595 18.9883 9.29773 18.988 9.61248ZM10.8967 22.9476C9.93207 22.9037 9.40778 22.743 9.05937 22.6072C8.59745 22.4274 8.26787 22.2132 7.92135 21.8672C7.57483 21.5212 7.36033 21.1919 7.18129 20.73C7.04547 20.3817 6.8848 19.8573 6.84095 18.8927C6.79298 17.8498 6.78341 17.5365 6.78341 14.8944C6.78341 12.2523 6.79378 11.9399 6.84095 10.8961C6.88488 9.93153 7.04674 9.40811 7.18129 9.05883C7.36112 8.59691 7.5753 8.26733 7.92135 7.92081C8.26739 7.57429 8.59666 7.35979 9.05937 7.18075C9.40763 7.04493 9.93207 6.88426 10.8967 6.84041C11.9396 6.79244 12.2528 6.78287 14.8938 6.78287C17.5347 6.78287 17.8483 6.79308 18.892 6.84057C19.8566 6.8845 20.38 7.04636 20.7293 7.18091C21.1912 7.35995 21.5208 7.57492 21.8673 7.92097C22.2139 8.26701 22.4276 8.59706 22.6074 9.05898C22.7432 9.40724 22.9039 9.93169 22.9477 10.8963C22.9957 11.94 23.0053 12.2524 23.0053 14.8946C23.0053 17.5367 22.9957 17.8491 22.9477 18.8928C22.9038 19.8574 22.7423 20.3817 22.6074 20.7301C22.4276 21.192 22.2134 21.5216 21.8673 21.8674C21.5213 22.2131 21.1912 22.4276 20.7293 22.6074C20.3811 22.7432 19.8566 22.9039 18.892 22.9478C17.8491 22.9957 17.5359 23.0053 14.8938 23.0053C12.2516 23.0053 11.9392 22.9957 10.8967 22.9478M10.8148 5.0604C9.76151 5.10837 9.0418 5.27538 8.41326 5.51995C7.76273 5.77252 7.21129 6.11136 6.66065 6.66113C6.11 7.21091 5.77203 7.76243 5.51946 8.41375C5.27489 9.04268 5.10788 9.76199 5.05992 10.8152C5.01116 11.8702 5 12.2074 5 14.8942C5 17.5811 5.01116 17.9183 5.05992 18.9732C5.10788 20.0266 5.27489 20.7458 5.51946 21.3747C5.77203 22.0253 6.11008 22.5778 6.66065 23.1273C7.21121 23.6769 7.76194 24.0152 8.41326 24.2685C9.04298 24.5131 9.76151 24.6801 10.8148 24.7281C11.8702 24.776 12.2069 24.788 14.8938 24.788C17.5806 24.788 17.9178 24.7768 18.9727 24.7281C20.0261 24.6801 20.7453 24.5131 21.3742 24.2685C22.0248 24.0152 22.5762 23.6771 23.1269 23.1273C23.6775 22.5776 24.0148 22.0253 24.268 21.3747C24.5126 20.7458 24.6804 20.0265 24.7276 18.9732C24.7755 17.9175 24.7867 17.5811 24.7867 14.8942C24.7867 12.2074 24.7755 11.8702 24.7276 10.8152C24.6796 9.76192 24.5126 9.04228 24.268 8.41375C24.0148 7.76322 23.6766 7.21178 23.1269 6.66113C22.5771 6.11049 22.0248 5.77252 21.375 5.51995C20.7453 5.27538 20.026 5.10758 18.9735 5.0604C17.9185 5.0122 17.5814 5.00049 14.8949 5.00049C12.2085 5.00049 11.8706 5.01165 10.8152 5.0604" fill="white"/>
<defs>
<radialGradient id="paint0_radial_88_23399" cx="0" cy="0" r="1" gradientUnits="userSpaceOnUse" gradientTransform="translate(1.94157 29.3433) scale(38.0889)">
<stop offset="0.09" stop-color="#FA8F21"/>
<stop offset="0.78" stop-color="#D82D7E"/>
</radialGradient>
<radialGradient id="paint1_radial_88_23399" cx="0" cy="0" r="1" gradientUnits="userSpaceOnUse" gradientTransform="translate(20.78 28.38) scale(33.5186)">
<stop offset="0.64" stop-color="#8C3AAA" stop-opacity="0"/>
<stop offset="1" stop-color="#8C3AAA"/>
</radialGradient>
</defs>
</svg>
