<svg width="43" height="34" viewBox="0 0 43 34" fill="none" xmlns="http://www.w3.org/2000/svg">
<path fill-rule="evenodd" clip-rule="evenodd" d="M9.40445 7.9432C10.3632 6.07482 12.2867 4.8999 14.3868 4.8999H28.3485C30.4696 4.8999 32.4087 6.09831 33.3573 7.99551L34.7035 10.688H39.2069C39.5383 10.688 39.8069 10.9566 39.8069 11.288V13.192C39.8069 13.3641 39.733 13.528 39.6039 13.6419C39.2476 13.9563 38.4482 14.5005 37.4653 14.7714L38.0335 15.4461C38.8837 16.4558 39.35 17.7333 39.35 19.0533V25.4536C39.35 25.785 39.0813 26.0536 38.75 26.0536H38.6227C38.3629 27.446 37.1413 28.5 35.6736 28.5H35.4286C33.9609 28.5 32.7394 27.446 32.4796 26.0536H10.2911C10.0313 27.446 8.8098 28.5 7.3421 28.5H7.09705C5.62916 28.5 4.4075 27.4457 4.14793 26.0531C3.8285 26.0396 3.57367 25.7764 3.57367 25.4536V18.7807C3.57367 17.3876 4.09291 16.0445 5.03 15.0137L5.24303 14.7794C4.2216 14.5061 3.56341 13.9295 3.29364 13.5248C3.22793 13.4262 3.19287 13.3104 3.19287 13.192V11.288C3.19287 10.9566 3.4615 10.688 3.79287 10.688H7.99593L9.40445 7.9432ZM5.3838 26.0536C5.61735 26.7768 6.29611 27.3 7.09705 27.3H7.3421C8.14304 27.3 8.8218 26.7768 9.05535 26.0536H5.3838ZM33.7153 26.0536H37.3869C37.1533 26.7768 36.4746 27.3 35.6736 27.3H35.4286C34.6277 27.3 33.9489 26.7768 33.7153 26.0536ZM7.27988 11.888H4.39287V12.9805C4.63051 13.2277 5.20168 13.6407 6.13444 13.7207L7.27988 11.888ZM6.72387 14.9344L5.91793 15.8209C5.18164 16.6308 4.77367 17.6861 4.77367 18.7807V24.8536H38.15V19.0533C38.15 18.0161 37.7836 17.0124 37.1156 16.2191L36.0337 14.9344H6.72387ZM7.54099 13.7344L8.87122 11.606C8.88018 11.5917 8.88853 11.577 8.89624 11.5619L10.4721 8.49107C11.2254 7.02306 12.7367 6.0999 14.3868 6.0999H28.3485C30.0151 6.0999 31.5387 7.04151 32.284 8.53216L33.7961 11.5563C33.8062 11.5765 33.8174 11.5961 33.8297 11.615L35.2073 13.7344H7.54099ZM36.6268 13.7163L35.4383 11.888H38.6069V12.9035C38.1857 13.2109 37.4325 13.6256 36.6268 13.7163ZM33.5872 18.0846C32.586 18.2735 31.5698 18.4995 31.2796 18.5721C31.1118 18.614 30.8369 18.7357 30.5271 18.8994C30.3127 19.0127 30.1058 19.133 29.9451 19.2311C29.8903 19.4218 29.9337 19.5348 29.9766 19.6071C30.0309 19.6988 30.1194 19.775 30.202 19.8251C31.932 19.7997 35.2115 19.7531 35.7479 19.751C35.7542 19.7443 35.7627 19.7343 35.7727 19.72C35.7962 19.6866 35.8196 19.6426 35.8396 19.5926C35.8504 19.5656 35.8588 19.5402 35.8652 19.5184V17.9506C35.7843 17.9052 35.6764 17.8544 35.5477 17.8092L35.547 17.8092C35.5326 17.8087 35.4959 17.8074 35.4289 17.8105C35.3119 17.816 35.1536 17.8315 34.96 17.8567C34.5744 17.9069 34.0875 17.9902 33.5872 18.0846ZM35.3732 16.6118C35.5045 16.6057 35.7161 16.6002 35.8933 16.6592C36.1664 16.7502 36.4025 16.8665 36.5802 16.9808C36.6673 17.0368 36.7543 17.1011 36.8275 17.1719C36.8632 17.2064 36.9091 17.2554 36.9504 17.3173C36.9809 17.363 37.0652 17.4968 37.0652 17.6854V19.5894C37.0652 19.6289 37.0613 19.6683 37.0535 19.707C37.016 19.8947 36.9248 20.1681 36.754 20.4108C36.5819 20.6551 36.2639 20.951 35.7798 20.951C35.3591 20.951 31.8072 21.0016 30.0766 21.0271C29.9973 21.0282 29.9186 21.0137 29.845 20.9842C29.5639 20.8718 29.1855 20.6258 28.9443 20.219C28.6813 19.7754 28.621 19.2036 28.9148 18.574C28.9627 18.4714 29.0388 18.3843 29.1341 18.3231C29.3243 18.2008 29.6361 18.013 29.9665 17.8384C30.2838 17.6708 30.6689 17.4878 30.9885 17.4079C31.3076 17.3282 32.3477 17.0973 33.3647 16.9054C33.8735 16.8094 34.3862 16.7213 34.805 16.6668C35.0136 16.6396 35.2087 16.6195 35.3732 16.6118ZM9.86119 16.9659C10.8995 17.1924 12.0065 17.4891 12.4141 17.6702C13.0062 17.9334 13.5338 18.27 13.7377 18.4157C13.8954 18.5283 13.9889 18.7102 13.9889 18.9039C13.9889 19.0517 13.985 19.2838 13.9728 19.506C13.9667 19.6168 13.9583 19.7313 13.9464 19.8344C13.936 19.9248 13.9184 20.0505 13.882 20.1599C13.8235 20.3355 13.713 20.4614 13.6382 20.5352C13.556 20.6162 13.4652 20.6841 13.3853 20.7375C13.2258 20.8441 13.0547 20.9294 12.9399 20.9786C12.8652 21.0106 12.7848 21.0271 12.7035 21.0271H7.44851C6.95575 21.0271 6.52854 20.9089 6.20363 20.6304C5.88077 20.3537 5.74119 19.9888 5.67884 19.6646C5.61773 19.3468 5.62064 19.0125 5.62779 18.7406C5.62936 18.6812 5.63107 18.6252 5.6327 18.572C5.63929 18.3568 5.64444 18.1887 5.63204 18.0398C5.629 18.0034 5.6293 17.9667 5.63294 17.9303C5.68883 17.3714 6.04068 17.0293 6.38336 16.8495C6.68109 16.6932 7.00286 16.6375 7.23627 16.6295C7.38945 16.6054 7.55832 16.6075 7.70717 16.6156C7.89344 16.6259 8.10775 16.6497 8.33496 16.682C8.79031 16.7467 9.32947 16.8499 9.86119 16.9659ZM7.47674 17.8108C7.44496 17.8118 7.42914 17.8139 7.4255 17.8144L7.42468 17.8145L7.42635 17.8141C7.38362 17.8236 7.33997 17.8284 7.2962 17.8284C7.20227 17.8284 7.05223 17.8536 6.94098 17.912C6.89039 17.9386 6.86399 17.9635 6.85111 17.9802C6.84491 17.9883 6.83818 17.9987 6.83316 18.016C6.84478 18.2208 6.83762 18.4446 6.83138 18.6395C6.82991 18.6855 6.82849 18.73 6.82738 18.7722C6.82026 19.0428 6.82316 19.2607 6.85725 19.438C6.8901 19.6088 6.94092 19.6819 6.98458 19.7193C7.02618 19.7549 7.1416 19.8271 7.44851 19.8271H12.5689C12.6176 19.8019 12.6708 19.7717 12.7185 19.7398C12.7313 19.7313 12.7424 19.7234 12.752 19.7164L12.7543 19.697C12.7624 19.6267 12.7692 19.5384 12.7746 19.4404C12.7785 19.3687 12.7815 19.295 12.7837 19.2239C12.5664 19.0894 12.2566 18.9134 11.9267 18.7668C11.6489 18.6433 10.6615 18.3687 9.60539 18.1383C9.08992 18.0258 8.5819 17.9291 8.16617 17.8701C7.95785 17.8405 7.78065 17.8215 7.64146 17.8138C7.57205 17.81 7.51751 17.8094 7.47674 17.8108Z" fill="black"/>
</svg>
