<svg width="43" height="34" viewBox="0 0 43 34" fill="none" xmlns="http://www.w3.org/2000/svg">
<path fill-rule="evenodd" clip-rule="evenodd" d="M16.4379 8.3895L16.4379 8.38941L16.4379 8.38922L16.438 8.38718L16.4383 8.37565C16.4386 8.36486 16.4391 8.34796 16.4395 8.32535C16.4403 8.28012 16.4411 8.21214 16.4408 8.12465C16.44 7.94953 16.4347 7.69717 16.416 7.39355C16.3785 6.78319 16.2881 5.98028 16.0801 5.18616C15.8703 4.38518 15.5527 3.63949 15.09 3.10363C14.6445 2.58758 14.0589 2.25579 13.2357 2.25579C11.4689 2.25579 10.5683 3.1509 10.0763 4.05906C9.82356 4.5257 9.67987 4.99865 9.59993 5.35899C9.56025 5.53789 9.53702 5.68565 9.52387 5.7864C9.51732 5.83668 9.5133 5.87498 9.51102 5.89928L9.5088 5.9249L9.50852 5.92862L9.50851 5.92876L9.5085 5.92881L9.50847 5.92931C9.48724 6.25932 9.20289 6.51006 8.87264 6.48961C8.54191 6.46914 8.29039 6.18443 8.31086 5.85369L8.90971 5.89076C8.31086 5.85369 8.31088 5.85339 8.3109 5.85308L8.31094 5.85237L8.31105 5.85066L8.31136 5.84608L8.31238 5.83232C8.31324 5.82114 8.3145 5.80599 8.31628 5.78711C8.31982 5.74938 8.32541 5.69669 8.33395 5.63118C8.35102 5.50033 8.38002 5.31723 8.42841 5.0991C8.52462 4.66538 8.70046 4.07959 9.0212 3.48749C9.6763 2.27816 10.9387 1.05579 13.2357 1.05579C14.4445 1.05579 15.3501 1.56858 15.9983 2.31941C16.6295 3.05043 17.0083 3.99392 17.2409 4.8821C17.4754 5.77716 17.5734 6.66343 17.6138 7.31995C17.634 7.64976 17.6399 7.92527 17.6408 8.11966C17.6412 8.21693 17.6403 8.2941 17.6393 8.34785C17.6388 8.37473 17.6382 8.39577 17.6378 8.41055L17.6374 8.42248V10.4984H28.503V8.41248C28.503 8.40482 28.5031 8.39715 28.5034 8.38949L28.5034 8.38941L28.5034 8.38922L28.5035 8.38718L28.5039 8.37565C28.5042 8.36486 28.5046 8.34796 28.5051 8.32535C28.5059 8.28012 28.5067 8.21214 28.5063 8.12465C28.5056 7.94953 28.5002 7.69717 28.4816 7.39355C28.4441 6.78319 28.3537 5.98028 28.1457 5.18616C27.9359 4.38518 27.6183 3.63949 27.1556 3.10363C26.7101 2.58758 26.1244 2.25579 25.3013 2.25579C23.5345 2.25579 22.6338 3.1509 22.1419 4.05906C21.8891 4.5257 21.7454 4.99865 21.6655 5.35899C21.6258 5.53789 21.6026 5.68565 21.5894 5.7864C21.5829 5.83668 21.5789 5.87498 21.5766 5.89928L21.5744 5.9249L21.5741 5.92783L20.9754 5.89077C21.5741 5.92783 21.5741 5.92809 21.5741 5.92834L21.5741 5.9287L21.5741 5.92876L21.5741 5.92878L21.574 5.92928C21.574 5.92935 21.574 5.92942 21.574 5.92949C21.5527 6.25941 21.2684 6.51005 20.9382 6.48961C20.6075 6.46914 20.3559 6.18443 20.3764 5.85369L20.9651 5.89013C20.3764 5.85369 20.3764 5.85339 20.3765 5.85308L20.3765 5.85237L20.3766 5.85066L20.3769 5.84608L20.3779 5.83232C20.3788 5.82114 20.3801 5.80599 20.3818 5.78711C20.3854 5.74938 20.391 5.69669 20.3995 5.63118C20.4166 5.50033 20.4456 5.31723 20.494 5.0991C20.5902 4.66538 20.766 4.07959 21.0868 3.48749C21.7419 2.27816 23.0042 1.05579 25.3013 1.05579C26.5101 1.05579 27.4156 1.56858 28.0639 2.31941C28.695 3.05043 29.0739 3.99392 29.3065 4.8821C29.541 5.77716 29.639 6.66343 29.6793 7.31995C29.6996 7.64976 29.7055 7.92527 29.7063 8.11966C29.7067 8.21693 29.7059 8.2941 29.7048 8.34785C29.7043 8.37473 29.7038 8.39577 29.7034 8.41055L29.703 8.42249V11.034C29.7053 11.0551 29.7064 11.0766 29.7064 11.0984C29.7064 11.1201 29.7053 11.1416 29.703 11.1627V17.8536C29.7053 17.8748 29.7064 17.8963 29.7064 17.9181C29.7064 17.9398 29.7053 17.9614 29.703 17.9825V20.7722C30.8476 20.5357 32.0637 20.7638 33.0625 21.4505C34.1519 22.1995 35.5918 22.1934 36.6748 21.4353L37.1559 21.0985C37.4274 20.9085 37.8015 20.9745 37.9915 21.246C38.1815 21.5174 38.1155 21.8916 37.8441 22.0816L37.3629 22.4184C35.8698 23.4636 33.8846 23.4719 32.3827 22.4394C31.3405 21.7229 29.9721 21.6947 28.9013 22.3678L28.6577 22.5209C27.0888 23.507 25.0905 23.4939 23.5347 22.4872C22.3708 21.7341 20.8758 21.7243 19.7022 22.462L19.5299 22.5703C18.0091 23.5263 16.0661 23.4973 14.5726 22.5016C13.448 21.7519 11.9804 21.7505 10.8569 22.4994C9.35909 23.498 7.41311 23.5187 5.89436 22.5522L5.17785 22.0962C4.89829 21.9183 4.81588 21.5475 4.99378 21.2679C5.17169 20.9883 5.54254 20.9059 5.82211 21.0838L6.53861 21.5398C7.65648 22.2512 9.08881 22.2359 10.1913 21.501C11.719 20.4825 13.7117 20.4855 15.2382 21.5032C15.6087 21.7501 16.0166 21.9164 16.4374 22.0015V8.41248C16.4374 8.40482 16.4376 8.39715 16.4379 8.3895ZM28.503 21.2112V18.5181H17.6374V22.0261C18.0752 21.956 18.5022 21.799 18.8913 21.5543L19.0635 21.4461C20.6324 20.4599 22.6308 20.4731 24.1866 21.4797C25.3505 22.2328 26.8454 22.2427 28.0191 21.5049L28.2627 21.3518C28.3417 21.3022 28.4218 21.2553 28.503 21.2112ZM28.503 17.3181V11.6984H17.6374L17.6374 17.3181H28.503ZM19.5299 27.0294C18.0091 27.9854 16.0661 27.9564 14.5726 26.9607C13.448 26.211 11.9804 26.2096 10.8569 26.9585C9.35909 27.9571 7.41311 27.9778 5.89436 27.0113L5.17785 26.5553C4.89829 26.3774 4.81588 26.0066 4.99378 25.727C5.17169 25.4475 5.54254 25.365 5.82211 25.5429L6.53861 25.9989C7.65648 26.7103 9.08881 26.695 10.1913 25.9601C11.719 24.9416 13.7117 24.9446 15.2382 25.9623C16.3396 26.6965 17.7719 26.7171 18.8913 26.0134L19.0635 25.9052C20.6324 24.919 22.6308 24.9322 24.1866 25.9388C25.3505 26.6919 26.8454 26.7018 28.0191 25.964L28.2627 25.8109C29.739 24.883 31.6257 24.9218 33.0625 25.9096C34.1519 26.6586 35.5918 26.6525 36.6748 25.8944L37.1559 25.5576C37.4274 25.3676 37.8015 25.4336 37.9915 25.7051C38.1815 25.9765 38.1155 26.3507 37.8441 26.5407L37.3629 26.8775C35.8698 27.9227 33.8846 27.9311 32.3827 26.8985C31.3405 26.182 29.9721 26.1538 28.9013 26.8269L28.6577 26.98C27.0888 27.9661 25.0905 27.953 23.5347 26.9463C22.3708 26.1932 20.8758 26.1834 19.7022 26.9211L19.5299 27.0294ZM19.5299 31.4884C18.0091 32.4444 16.0661 32.4154 14.5726 31.4197C13.448 30.67 11.9804 30.6686 10.8569 31.4175C9.35909 32.4161 7.41311 32.4368 5.89436 31.4703L5.17785 31.0143C4.89829 30.8364 4.81588 30.4656 4.99378 30.186C5.17169 29.9064 5.54254 29.824 5.82211 30.0019L6.53861 30.4579C7.65648 31.1693 9.08881 31.154 10.1913 30.419C11.719 29.4006 13.7117 29.4036 15.2382 30.4213C16.3396 31.1555 17.7719 31.1761 18.8913 30.4724L19.0635 30.3642C20.6324 29.378 22.6308 29.3911 24.1866 30.3978C25.3505 31.1509 26.8454 31.1608 28.0191 30.423L28.2627 30.2699C29.739 29.342 31.6257 29.3808 33.0625 30.3686C34.1519 31.1176 35.5918 31.1115 36.6748 30.3534L37.1559 30.0166C37.4274 29.8266 37.8015 29.8926 37.9915 30.1641C38.1815 30.4355 38.1155 30.8096 37.8441 30.9997L37.3629 31.3365C35.8698 32.3817 33.8846 32.39 32.3827 31.3575C31.3405 30.641 29.9721 30.6128 28.9013 31.2859L28.6577 31.439C27.0888 32.4251 25.0905 32.412 23.5347 31.4053C22.3708 30.6522 20.8758 30.6424 19.7022 31.3801L19.5299 31.4884Z" fill="black"/>
</svg>
