<svg width="43" height="34" viewBox="0 0 43 34" fill="none" xmlns="http://www.w3.org/2000/svg">
<path fill-rule="evenodd" clip-rule="evenodd" d="M31.25 9.3C32.3822 9.3 33.3 8.38218 33.3 7.25C33.3 6.11782 32.3822 5.2 31.25 5.2C30.1178 5.2 29.2 6.11782 29.2 7.25C29.2 8.38218 30.1178 9.3 31.25 9.3ZM31.25 10.5C31.2667 10.5 31.2834 10.4999 31.3001 10.4996V23.5004L31.2691 23.5001L31.25 23.5C29.4551 23.5 28 24.9551 28 26.75L28.0001 26.7691L28.0004 26.8001H14.9996C14.9999 26.7834 15 26.7667 15 26.75C15 24.9551 13.5449 23.5 11.75 23.5C11.7333 23.5 11.7167 23.5001 11.7001 23.5004V10.4996C11.7167 10.4999 11.7333 10.5 11.75 10.5C13.5449 10.5 15 9.04493 15 7.25C15 7.23334 14.9999 7.21672 14.9996 7.20012H28.0004C28.0001 7.21672 28 7.23334 28 7.25C28 9.04493 29.4551 10.5 31.25 10.5ZM14.751 6.00012C14.2612 4.82558 13.102 4 11.75 4C9.95507 4 8.5 5.45507 8.5 7.25C8.5 8.60202 9.32558 9.76122 10.5001 10.251V23.749C9.32558 24.2388 8.5 25.398 8.5 26.75C8.5 28.5449 9.95507 30 11.75 30C13.1019 30 14.2611 29.1745 14.7509 28.0001H28.2491C28.7389 29.1745 29.8981 30 31.25 30C33.0449 30 34.5 28.5449 34.5 26.75C34.5 25.3981 33.6745 24.2389 32.5001 23.7491V10.2509C33.6745 9.76106 34.5 8.60193 34.5 7.25C34.5 5.45507 33.0449 4 31.25 4C29.898 4 28.7388 4.82558 28.249 6.00012H14.751ZM31.25 28.8C32.3822 28.8 33.3 27.8822 33.3 26.75C33.3 25.6178 32.3822 24.7 31.25 24.7C30.1178 24.7 29.2 25.6178 29.2 26.75C29.2 27.8822 30.1178 28.8 31.25 28.8ZM13.8 26.75C13.8 27.8822 12.8822 28.8 11.75 28.8C10.6178 28.8 9.7 27.8822 9.7 26.75C9.7 25.6178 10.6178 24.7 11.75 24.7C12.8822 24.7 13.8 25.6178 13.8 26.75ZM13.8 7.25C13.8 8.38218 12.8822 9.3 11.75 9.3C10.6178 9.3 9.7 8.38218 9.7 7.25C9.7 6.11782 10.6178 5.2 11.75 5.2C12.8822 5.2 13.8 6.11782 13.8 7.25Z" fill="black"/>
</svg>
