<svg width="140" height="160" viewBox="0 0 140 160" fill="none" xmlns="http://www.w3.org/2000/svg">
<path fill-rule="evenodd" clip-rule="evenodd" d="M0 1.00143C0 0.448355 0.446324 0 0.996892 0H13.9959H19.9711H121.029H127.004H139.003C139.554 0 140 0.448355 140 1.00143V11.9986C140 12.5516 139.554 13 139.003 13H128V158.998C128 159.551 127.554 160 127.004 160H13.9959C13.4459 160 13 159.551 13 158.998V13H0.996894C0.446326 13 0 12.5516 0 11.9986V1.00143ZM19.9711 67.9942V13H56.0082V27H45V55H56.0082V63H33V67.9942H19.9711ZM57 55V63H70V99H84V55H57ZM84 54.0151H57V27.9849H121.029V54.0151H113V41H84V54.0151ZM84.9964 55V99H105V127H84.9964V152.986H112.004V55H84.9964ZM112.004 54.0151H84.9964V42.0056H112.004V54.0151ZM113 55V152.986H121.029V55H113ZM121.029 27V13H57V27H121.029ZM56.0082 27.9849V54.0151H45.9918V27.9849H56.0082ZM33.9843 64.0083H56.0082V67.9942H33.9843V64.0083ZM57 69H33.9843V99H69.0157V64.0083H57V69ZM33 69V99H19.9711V69H33ZM33 99.9849H19.9711V126.015H33V99.9849ZM19.9711 152.986V127H33V136H70V127H84V152.986H19.9711ZM33.9843 134.992V127H69.0157V134.992H33.9843ZM84 126.015H70V99.9849H84V126.015ZM69.0157 126.015V99.9849H33.9843V126.015H69.0157ZM84.9964 126.015V99.9849H104.007V126.015H84.9964Z" fill="#5E60CE"/>
</svg>
