<svg width="43" height="34" viewBox="0 0 43 34" fill="none" xmlns="http://www.w3.org/2000/svg">
<path fill-rule="evenodd" clip-rule="evenodd" d="M21.7262 3.88266C21.5898 3.78918 21.4101 3.78918 21.2737 3.88266L4.33928 15.4949C4.06598 15.6823 3.69252 15.6126 3.50512 15.3393C3.31772 15.0661 3.38735 14.6926 3.66064 14.5052L20.5951 2.89298C21.1404 2.51907 21.8595 2.51907 22.4048 2.89298L39.3393 14.5052C39.6126 14.6926 39.6822 15.0661 39.4948 15.3393C39.3074 15.6126 38.9339 15.6823 38.6606 15.4949L21.7262 3.88266ZM21.808 13.408C22.2933 13.408 22.7466 13.48 23.168 13.624C23.5893 13.768 23.952 13.9787 24.256 14.256C24.5653 14.528 24.808 14.8614 24.984 15.256C25.16 15.6507 25.248 16.0987 25.248 16.6C25.248 17.0267 25.184 17.4214 25.056 17.784C24.928 18.1467 24.7546 18.496 24.536 18.832C24.3173 19.1627 24.064 19.4854 23.776 19.8C23.4933 20.1094 23.192 20.4267 22.872 20.752L19.856 23.84C20.0693 23.7814 20.2853 23.736 20.504 23.704C20.7226 23.6667 20.9333 23.648 21.136 23.648H24.976C25.1306 23.648 25.2533 23.6934 25.344 23.784C25.4346 23.8747 25.48 23.992 25.48 24.136V25H17.832V24.512C17.832 24.4107 17.8506 24.3067 17.888 24.2C17.9306 24.0934 17.9973 23.9947 18.088 23.904L21.76 20.216C22.064 19.9067 22.3413 19.6107 22.592 19.328C22.8426 19.04 23.056 18.752 23.232 18.464C23.4133 18.176 23.552 17.8854 23.648 17.592C23.744 17.2934 23.792 16.976 23.792 16.64C23.792 16.304 23.7386 16.0107 23.632 15.76C23.5253 15.504 23.3786 15.2934 23.192 15.128C23.0053 14.9627 22.7866 14.84 22.536 14.76C22.2853 14.6747 22.016 14.632 21.728 14.632C21.44 14.632 21.1733 14.6747 20.928 14.76C20.6826 14.8454 20.464 14.9654 20.272 15.12C20.0853 15.2694 19.9253 15.448 19.792 15.656C19.664 15.864 19.5733 16.0934 19.52 16.344C19.4773 16.4987 19.4133 16.6107 19.328 16.68C19.2426 16.7494 19.1306 16.784 18.992 16.784H18.904C18.8773 16.7787 18.8453 16.7734 18.808 16.768L18.064 16.64C18.1386 16.1174 18.2826 15.656 18.496 15.256C18.7093 14.8507 18.9786 14.512 19.304 14.24C19.6346 13.968 20.0106 13.7627 20.432 13.624C20.8586 13.48 21.3173 13.408 21.808 13.408ZM10.6 14C10.6 13.6687 10.3313 13.4 9.99996 13.4C9.66859 13.4 9.39996 13.6687 9.39996 14V30C9.39996 30.8837 10.1163 31.6 11 31.6H32C32.8836 31.6 33.6 30.8837 33.6 30V14C33.6 13.6687 33.3313 13.4 33 13.4C32.6686 13.4 32.4 13.6687 32.4 14V30C32.4 30.2209 32.2209 30.4 32 30.4H11C10.779 30.4 10.6 30.2209 10.6 30V14Z" fill="black"/>
</svg>
