<svg width="47" height="47" viewBox="0 0 47 47" fill="none" xmlns="http://www.w3.org/2000/svg">
<path fill-rule="evenodd" clip-rule="evenodd" d="M45 23.5C45 35.3741 35.3741 45 23.5 45C11.6259 45 2 35.3741 2 23.5C2 11.6259 11.6259 2 23.5 2C35.3741 2 45 11.6259 45 23.5ZM47 23.5C47 36.4787 36.4787 47 23.5 47C10.5213 47 0 36.4787 0 23.5C0 10.5213 10.5213 0 23.5 0C36.4787 0 47 10.5213 47 23.5ZM15.3338 19.9984V15.0999H15.3335C15.3335 14.2579 15.7063 13.4925 16.2284 12.9185C16.7877 12.3444 17.5335 12 18.3911 12H28.6082C29.4658 12 30.2116 12.3444 30.7709 12.9185C31.293 13.4925 31.6658 14.2579 31.6658 15.0999V19.9984C30.9202 20.0749 30.2489 20.4192 29.7642 20.955C29.1675 21.5291 28.7946 22.371 28.7946 23.2895V26.2361H18.205V23.2895C18.205 22.371 17.8321 21.5291 17.2355 20.955C16.7507 20.4193 16.0796 20.0749 15.3338 19.9984ZM14.961 20.7638C15.6321 20.7638 16.2661 21.0317 16.7135 21.4909H16.7139C17.1613 21.95 17.4224 22.6006 17.4224 23.2895V26.6571C17.4224 26.8484 17.6087 27.0398 17.7952 27.0398H29.2052C29.3916 27.0398 29.5781 26.8485 29.5781 26.6571V23.2895C29.5781 22.6007 29.8391 21.95 30.2865 21.4909C30.7339 21.0317 31.3678 20.7638 32.039 20.7638C32.6729 20.7638 33.3068 21.0701 33.717 21.5292C34.2017 21.9885 34.5 22.6391 34.5 23.2896C34.5 23.902 34.3509 24.3995 34.0898 24.7822C33.7914 25.2031 33.344 25.5093 32.8592 25.6623C32.7101 25.7388 32.5982 25.8919 32.5982 26.0449V35H30.6592L29.988 30.4461C29.9507 30.2547 29.8016 30.1016 29.6151 30.1016H17.3847C17.1984 30.1016 17.0492 30.2547 17.0119 30.4461L16.3406 35H14.4016V26.0449C14.4016 25.8537 14.2899 25.7006 14.1034 25.6623C13.6186 25.471 13.2084 25.1648 12.9102 24.7822C12.6491 24.3995 12.5 23.902 12.5 23.2896C12.5 22.6391 12.7983 21.9884 13.283 21.5292C13.6932 21.0699 14.3271 20.7638 14.961 20.7638Z" fill="#CDCDCD"/>
</svg>
