<svg width="144" height="55" viewBox="0 0 144 55" fill="none" xmlns="http://www.w3.org/2000/svg">
<g clip-path="url(#clip0_88_23402)">
<path fill-rule="evenodd" clip-rule="evenodd" d="M27.5764 0.000488281C27.5764 0.000488281 29.7304 1.15204 31.4609 4.49525C33.1916 7.8431 31.3827 9.53793 30.7797 9.81188C30.7797 9.81188 29.9744 8.25172 29.5877 6.86336C29.2057 5.47964 28.4693 3.42728 28.4693 3.42728C28.4693 3.42728 28.5613 5.38213 28.8053 6.87729C29.0492 8.37244 30.1171 10.2994 30.1171 10.2994C30.1071 10.3088 30.0972 10.3182 30.0872 10.3276C29.825 10.5744 29.5536 10.8299 29.1412 10.982C28.3956 11.2513 25.4453 8.22386 26.2324 4.66241C27.0195 1.10096 27.5764 0.000488281 27.5764 0.000488281ZM25.5238 10.4387C25.0128 7.78732 23.7655 5.38672 23.7655 5.38672C23.7655 5.38672 20.9395 8.09379 20.3504 11.4091C19.7612 14.7292 21.86 17.0694 22.6655 16.9162C23.1039 16.8335 23.524 16.5081 23.9193 16.2018L23.92 16.2013C23.9686 16.1636 24.0169 16.1263 24.0647 16.0897L23.6735 16.3868C23.6735 16.3868 23.2132 13.5775 23.2132 12.7046C23.2132 11.8317 23.5124 10.1276 23.5124 10.1276V12.556C23.5124 13.2098 24.1365 16.0303 24.1383 16.0385L24.1199 16.0525L24.1383 16.0386L24.1383 16.0385C24.3941 15.8448 24.6411 15.6795 24.8794 15.616C25.5467 15.4302 26.0392 13.09 25.5238 10.4387ZM37.9738 10.8426C36.6251 7.32293 34.6138 5.93457 34.6138 5.93457C34.6138 5.93457 33.9419 6.96539 32.7637 10.4154C31.5854 13.8655 33.3297 17.2504 34.9545 17.0229C35.2306 16.9857 35.4423 16.9346 35.6126 16.8836L35.606 16.8555C35.5367 16.5617 34.9453 14.0564 34.9453 12.9599C34.9453 11.7945 35.1109 9.71889 35.1109 9.71889C35.1109 9.71889 35.295 12.1706 35.4101 13.1689C35.4868 13.8418 35.8636 15.2074 36.0991 16.0608L36.0995 16.0621L36.0999 16.0635C36.1468 16.2335 36.1881 16.3832 36.2202 16.5028C36.2506 16.4629 36.2766 16.4234 36.3018 16.385C36.391 16.2494 36.4712 16.1274 36.7081 16.0478C37.3386 15.8435 39.3269 14.3622 37.9738 10.8426ZM31.9452 17.5848C31.6736 13.8237 30.1502 11.9014 30.1502 11.9014C30.1502 11.9014 27.6003 13.8098 26.6246 15.7507C25.6488 17.6917 26.2242 20.5565 27.0158 20.6076C27.1954 20.6169 27.3702 20.7098 27.5451 20.8398L27.5314 20.8259C27.5314 20.8259 28.2631 19.73 28.6498 18.7317C29.0363 17.7334 29.584 15.7647 29.584 15.7647C29.584 15.7647 29.1975 18.2581 28.9259 19.0056C28.6498 19.7532 27.9226 21.1694 27.9226 21.1694C28.0093 21.257 28.0954 21.3484 28.1807 21.439L28.1807 21.439L28.1808 21.439C28.5435 21.8242 28.8925 22.1948 29.2204 22.1911C29.8878 22.1771 32.2167 21.346 31.9452 17.5848ZM19.9132 18.3465L19.9007 18.3407C19.7144 18.2547 17.4898 17.2279 16.4475 16.5774C15.3567 15.8995 14.068 14.6179 14.068 14.6179C14.068 14.6179 15.6835 15.6719 16.4889 16.1967C17.2864 16.7161 19.6586 17.4041 19.7054 17.4176L19.7061 17.4225V17.4178L19.7054 17.4176C19.6786 17.2291 19.6835 17.0543 19.7384 16.9024C19.9777 16.2478 18.2839 13.8935 15.8492 12.7745C13.4144 11.6555 10.3398 12.3287 10.3398 12.3287C10.3398 12.3287 11.2926 15.1797 13.6307 17.585C15.9688 19.9949 19.5496 20.0971 19.8948 19.3448C20.0237 19.0384 19.9915 18.6948 19.9132 18.3465ZM21.644 17.9468C21.644 17.9468 23.324 18.3601 25.7725 21.2111C28.2165 24.0668 27.5216 26.3466 27.0014 26.7645C26.8081 26.9178 26.6516 27.1638 26.4952 27.4425C26.4952 27.4425 25.1696 25.7894 24.5114 24.9722C23.8533 24.1549 23.0017 21.1739 23.0017 21.1739C23.0017 21.1739 23.1076 23.3424 23.821 24.9722C24.5206 26.5696 26.0578 28.0461 26.2052 27.9533C26.021 28.2689 25.8185 28.5615 25.547 28.7426C24.8796 29.1791 21.552 27.6515 21.506 24.0017C21.4598 20.352 21.644 17.9468 21.644 17.9468ZM18.4082 20.9604C18.4082 20.9604 16.5534 22.8781 15.3291 26.0309C14.1049 29.1838 16.8802 32.2019 17.7086 32.2206C18.1137 32.2298 18.4266 32.0442 18.7258 31.8444C18.7258 31.8444 18.2379 30.1868 18.2379 29.063C18.2379 27.9394 18.597 26.5882 18.597 26.5882V29.1884C18.597 29.9221 19.2183 31.538 19.2183 31.538C19.3655 31.4637 19.5174 31.4079 19.6878 31.3986C20.3827 31.3569 20.9627 30.6139 20.9673 27.8836C20.9719 25.1627 18.4082 20.9604 18.4082 20.9604ZM30.3798 24.9678C30.3798 24.9678 31.3049 25.9057 32.0781 27.8699C32.856 29.8339 31.6732 30.6605 31.3188 30.7858C31.2773 30.7998 31.2405 30.8137 31.2037 30.8322C31.2037 30.8322 31.0564 30.0011 30.863 29.3325C30.6652 28.6639 30.5869 28.1716 30.5869 28.1716C30.5869 28.1716 30.4626 28.9192 30.5869 29.5275C30.6903 30.0334 30.8605 30.7094 30.9148 30.9254L30.9148 30.9255C30.9259 30.9692 30.9321 30.994 30.9321 30.9948C30.7756 31.0969 30.6008 31.1991 30.2648 31.2502C29.6664 31.3431 28.7182 29.4346 29.3626 27.4938C30.007 25.5481 30.3798 24.9678 30.3798 24.9678ZM38.0754 25.2559C38.0754 25.2559 37.2239 25.7573 35.1437 27.7864C33.0633 29.8202 33.0126 32.7734 33.8319 33.0196C34.1541 33.117 34.3934 33.1356 34.6005 33.1264C34.6051 33.1217 35.139 31.7891 35.4014 30.9903C35.6637 30.1871 36.6118 28.8126 36.6118 28.8126C36.6118 28.8126 35.9675 30.4797 35.7327 31.1158C35.5578 31.5987 35.3507 32.6016 35.2587 33.0613H35.2588C35.3232 33.0613 35.3922 33.0613 35.4658 33.0706C35.9951 33.1356 38.0202 32.8245 38.3241 29.9038C38.6323 26.9831 38.0754 25.2559 38.0754 25.2559ZM8.13997 27.4475C11.5781 26.6303 14.4824 30.2149 14.9472 32.4344C14.98 32.5909 14.8717 32.6577 14.6937 32.7675C14.597 32.8271 14.4798 32.8994 14.3535 33.0056C14.3535 33.0056 12.3513 31.4176 11.1317 30.8928C9.91197 30.3681 7.44037 29.8434 7.44037 29.8434C7.44037 29.8434 9.622 30.8696 10.8647 31.4221C11.9647 31.9143 13.6124 33.1263 13.9852 33.4048C13.9208 33.4978 13.8564 33.6045 13.792 33.7253C13.2396 34.7793 9.34124 34.3242 6.17927 32.4855C3.13235 31.0599 1.32812 28.3761 1.32812 28.3761C1.32812 28.3761 4.88133 28.2183 8.13997 27.4475ZM26.3935 34.4079C27.639 34.4079 28.6487 33.3892 28.6487 32.1327C28.6487 30.8761 27.639 29.8574 26.3935 29.8574C25.1479 29.8574 24.1382 30.8761 24.1382 32.1327C24.1382 33.3892 25.1479 34.4079 26.3935 34.4079ZM33.3113 36.4042C33.3113 37.6607 32.3016 38.6794 31.056 38.6794C29.8105 38.6794 28.8008 37.6607 28.8008 36.4042C28.8008 35.1476 29.8105 34.1289 31.056 34.1289C32.3016 34.1289 33.3113 35.1476 33.3113 36.4042ZM28.8 41.3125C28.8967 40.7322 30.1393 39.0791 34.8156 38.3036C39.4917 37.5282 41.3696 38.5869 40.0027 38.7076C38.6357 38.8284 31.9251 40.6671 31.3912 43.7456C30.8573 46.8242 31.9113 49.6799 31.9113 49.6799C31.9113 49.6799 32.68 52.0712 33.0757 53.6639H28.8276C28.8276 53.6639 28.7033 41.7443 28.8 41.3125ZM40.4333 39.9888C40.3363 40.0538 40.2578 40.1142 40.2117 40.1653L40.2116 40.1654C40.2026 40.1744 40.1936 40.1835 40.1832 40.1926L40.1655 40.207C40.1719 40.2022 40.1777 40.1974 40.1832 40.1926L40.4333 39.9888ZM40.4407 39.9844C40.9701 39.6407 42.1898 39.2413 43.5982 40.5322C45.2781 42.0691 45.8121 43.3553 45.8121 43.3553C45.8121 43.3553 45.0295 43.4993 42.7053 43.3925C40.381 43.2857 38.8437 41.5956 39.2257 41.0337C39.4624 40.6904 39.6694 40.557 39.8611 40.4335C39.9079 40.4034 39.9538 40.3738 39.999 40.3419L39.9943 40.3466L40.9425 41.0198L42.8387 41.8463L41.6006 41.0198L40.4407 39.9844ZM139.301 41.2845L137.995 42.6403V44.7669H136.467V36.4507H137.995V40.7133L142.068 36.4507H143.784L140.323 40.1655L143.996 44.7624H142.205L139.301 41.2845ZM131.568 42.3292L133.253 44.7624H134.9L133.004 42.032C133.571 41.8139 134.003 41.4749 134.307 41.0244C134.611 40.5741 134.763 40.0353 134.763 39.4086C134.763 38.8003 134.62 38.2756 134.339 37.8298C134.053 37.3841 133.649 37.0451 133.119 36.8083C132.59 36.5714 131.969 36.4507 131.255 36.4507H127.863V44.7669H129.391V42.3432H131.251C131.393 42.3432 131.499 42.3385 131.568 42.3292ZM131.182 37.7555C131.849 37.7555 132.355 37.8995 132.701 38.1826C133.046 38.4705 133.216 38.8793 133.216 39.4039C133.216 39.938 133.046 40.3466 132.701 40.6344C132.355 40.9223 131.849 41.0663 131.182 41.0663H129.391V37.7555H131.182ZM116.284 36.8083C116.814 37.0451 117.219 37.3841 117.504 37.8298C117.785 38.2756 117.927 38.8003 117.927 39.4086C117.927 40.0121 117.785 40.5369 117.504 40.9827C117.223 41.4285 116.814 41.772 116.284 42.0088C115.755 42.2457 115.134 42.3664 114.42 42.3664H112.561V44.7669H111.033V36.4507H114.425C115.134 36.4507 115.755 36.5714 116.284 36.8083ZM115.87 40.6297C116.215 40.3466 116.386 39.938 116.386 39.4086C116.386 38.8793 116.211 38.4705 115.87 38.1873C115.525 37.9042 115.019 37.7602 114.351 37.7602H112.561V41.0616H114.351C115.019 41.057 115.525 40.9176 115.87 40.6297ZM120.269 42.8399H124.388L125.212 44.7624H126.814L123.095 36.4507H121.59L117.88 44.7624H119.459L120.269 42.8399ZM122.326 37.9923L123.882 41.6281H120.785L122.326 37.9923ZM105.569 36.4507V44.7624H104.308L99.7649 39.1345V44.7624H98.2461V36.4507H99.5072L104.05 42.0785V36.4507H105.569ZM96.5383 44.7669V43.4715H91.8896V41.1776H95.8663V39.9054H91.8896V37.7463H96.3725V36.4507H90.3569V44.7669H96.5383ZM88.654 43.4715V44.7669H82.4727V36.4507H88.4883V37.7463H84.0053V39.9054H87.982V41.1776H84.0053V43.4715H88.654ZM77.5762 42.3292L79.2607 44.7624H80.9131L79.0168 42.032C79.583 41.8139 80.0156 41.4749 80.3194 41.0244C80.6186 40.5741 80.7704 40.0353 80.7704 39.4086C80.7704 38.8003 80.6278 38.2756 80.347 37.8298C80.0616 37.3841 79.6566 37.0451 79.1272 36.8083C78.598 36.5714 77.9766 36.4507 77.2632 36.4507H73.8711V44.7669H75.3992V42.3432H77.2586C77.4014 42.3432 77.5071 42.3385 77.5762 42.3292ZM77.1896 37.7555C77.857 37.7555 78.3632 37.8995 78.7084 38.1826C79.0536 38.4705 79.2286 38.8793 79.2286 39.4039C79.2286 39.938 79.0536 40.3466 78.7084 40.6344C78.3632 40.9223 77.857 41.0663 77.1896 41.0663H75.3992V37.7555H77.1896ZM70.4096 40.5138H71.8594V43.8246C71.4359 44.1634 70.9388 44.4281 70.3774 44.6092C69.8159 44.7903 69.2314 44.8832 68.6376 44.8832C67.7999 44.8832 67.0404 44.6975 66.3639 44.3307C65.6874 43.9638 65.158 43.453 64.776 42.8029C64.3894 42.153 64.2007 41.4192 64.2007 40.6067C64.2007 39.7941 64.394 39.0605 64.776 38.4104C65.158 37.7603 65.6919 37.2542 66.3731 36.8828C67.0496 36.5159 67.8138 36.3301 68.6606 36.3301C69.351 36.3301 69.977 36.4462 70.5431 36.6738C71.1092 36.9013 71.5832 37.2403 71.9652 37.6813L70.9987 38.6332C70.3728 38.0018 69.6134 37.6813 68.7251 37.6813C68.1451 37.6813 67.6296 37.8021 67.1786 38.0482C66.7275 38.2943 66.3731 38.6379 66.12 39.0837C65.8668 39.5295 65.7379 40.0355 65.7379 40.602C65.7379 41.1545 65.8668 41.6561 66.12 42.0972C66.3731 42.5429 66.7275 42.8912 67.1786 43.1419C67.6296 43.3973 68.1406 43.5227 68.7158 43.5227C69.3602 43.5227 69.9218 43.3788 70.4096 43.0955V40.5138ZM6.79082 34.4311C9.28082 34.1524 10.7675 35.4248 10.8549 35.8706C10.8961 36.0873 10.8188 36.1597 10.7347 36.2385C10.6874 36.2828 10.6379 36.3292 10.6064 36.4045C10.6064 36.4045 9.58459 36.2466 8.51219 36.2466C7.43978 36.2466 5.79206 36.6784 5.79206 36.6784C5.79206 36.6784 7.78958 36.6878 8.51219 36.6831C9.23479 36.6784 10.4867 37.0082 10.4867 37.0082C10.0587 37.8672 8.18081 39.6828 5.80126 38.6658C3.0397 37.4864 2.3125 36.5439 2.3125 36.5439C2.3125 36.5439 4.29621 34.7097 6.79082 34.4311ZM22.366 33.9527C27.0423 34.9278 28.2205 37.3191 28.3769 38.1827C28.5335 39.0465 28.4323 53.659 28.4276 53.6637H24.0413C24.363 51.9238 24.9725 49.5606 25.2106 48.6375L25.211 48.6358L25.266 48.422L25.2887 48.3332L25.2943 48.3108C25.4671 47.629 27.2511 40.5896 23.6731 37.3423C21.008 34.9235 17.9765 34.4704 16.601 34.2648C16.107 34.1909 15.8265 34.149 15.8533 34.0595C15.9592 33.7205 17.6897 32.9729 22.366 33.9527ZM17.9994 38.0947V38.0993L17.9993 38.0982L17.9989 38.0963L17.9994 38.0947ZM15.3344 38.3965C17.8517 37.7868 17.9912 38.0637 17.9989 38.0963C17.9486 38.2721 17.9352 38.4341 18.0086 38.5637C18.2434 39.0419 16.4023 41.1825 13.4106 41.0107C10.4143 40.8389 9.41553 40.1981 9.41553 40.1981C9.41553 40.1981 10.1934 38.5544 12.9273 36.6878C15.6612 34.8211 18.1467 36.3302 18.3768 36.7202C18.4596 36.8642 18.3998 37.0917 18.2986 37.3424C18.2986 37.3424 17.0282 37.621 15.3804 38.1272C13.7328 38.6333 12.3704 38.8329 12.3704 38.8329C12.3704 38.8329 12.6696 39.0419 15.3344 38.3965ZM8.24101 16.5728C8.24101 16.5728 11.2373 17.6871 12.7285 19.9624C14.2152 22.2376 14.9608 24.731 14.4039 25.1536C14.2428 25.2743 14.1369 25.4369 14.0449 25.618C14.0449 25.618 12.7147 24.5221 12.1118 23.6631C11.5089 22.8041 10.5469 20.8213 10.5469 20.8213C10.5469 20.8213 11.5227 23.7327 11.8126 24.2575C12.098 24.7821 13.6675 26.4305 13.6721 26.4352C13.5616 26.6255 13.4236 26.7974 13.2164 26.9319C12.5168 27.3777 8.64144 26.2634 7.92804 22.9526C7.21464 19.6466 8.24101 16.5728 8.24101 16.5728ZM32.3409 21.6105C33.2752 19.9297 35.3601 18.3462 35.3601 18.3462C35.3601 18.3462 36.1886 20.6214 36.1978 23.5885C36.2112 26.481 34.6803 26.3945 34.1196 26.3628L34.0806 26.3606C33.8182 26.3467 33.6526 26.2352 33.4777 26.1145C33.4777 26.1145 34.053 24.5683 34.1681 23.7324C34.2877 22.9014 34.4718 21.5641 34.4718 21.5641C34.4718 21.5641 34.145 22.4509 33.8689 23.8347C33.5973 25.2184 33.0957 25.9009 33.0957 25.9009L33.1141 25.9102C33.0266 25.8731 32.9346 25.8452 32.8196 25.8313C32.2028 25.7477 31.4065 23.2961 32.3409 21.6105ZM42.2445 14.3995C46.3639 12.7697 47.8644 12.5562 47.8644 12.5562C47.8644 12.5562 48.2509 15.3422 46.1429 19.1915C44.0396 23.0408 39.9295 23.6213 39.2161 23.2359C38.9294 23.0794 38.9282 22.9375 38.9266 22.7427C38.925 22.556 38.9229 22.3207 38.6684 21.9775C38.9565 21.7199 39.4758 21.2531 40.0469 20.7398L40.0515 20.7357C40.6012 20.2415 41.1984 19.7048 41.6831 19.2704C42.9304 18.1513 44.4447 16.3869 44.4447 16.3869C44.4447 16.3869 42.8797 17.7335 41.7659 18.6901C40.6521 19.6465 38.0056 21.3321 38.0056 21.3321C36.4637 20.1155 38.1207 16.0294 42.2445 14.3995ZM43.3768 23.7793C40.3758 24.4525 38.788 27.257 39.6716 28.3436L42.4884 26.5931L45.3098 24.9679L42.6633 27.0295L40.0965 28.8116L39.6772 28.3481C39.8521 28.5611 39.9857 28.7096 40.0964 28.8116L40.095 28.8126C40.3281 29.0302 40.433 29.0336 40.534 29.0368C40.6206 29.0396 40.7045 29.0423 40.8637 29.1794C41.2964 29.5509 43.4596 30.3263 45.3881 27.7771C47.3165 25.2279 47.4224 23.1384 47.4224 23.1384C47.4224 23.1384 46.3776 23.1058 43.3768 23.7793ZM38.3331 35.5126C37.5185 34.8486 38.508 31.1154 42.5675 30.5814C46.6271 30.0475 47.2668 29.3276 47.2668 29.3276C47.2668 29.3276 47.0091 31.4404 45.1404 34.4075C43.2671 37.3745 40.7679 36.706 40.1925 36.3762C40.0499 36.2926 39.9164 36.2417 39.7784 36.1951C40.2156 35.6473 40.9475 34.7372 41.2281 34.389C41.6377 33.8782 44.3395 31.8444 44.3395 31.8444C44.3395 31.8444 42.0567 33.2235 41.2604 33.8457C40.4641 34.4679 39.1708 36.0048 39.1708 36.0048C38.9268 35.9166 38.6599 35.7773 38.3331 35.5126ZM49.9448 36.3205C46.3088 34.4167 43.3861 36.9102 43.6761 37.9272C43.6899 37.9828 43.7083 38.034 43.7268 38.0849C44.0397 38.02 45.3699 37.7693 46.6309 37.7693C48.0716 37.7693 50.2164 38.0989 50.2164 38.0989C50.2164 38.0989 47.5377 38.1083 46.5067 38.3915C45.7519 38.6005 44.5691 38.6561 43.9937 38.6746C44.1027 38.8559 44.217 38.9969 44.3273 39.1331L44.3273 39.1331C44.4685 39.3073 44.6032 39.4735 44.7117 39.7056C44.9971 40.3092 46.6724 42.2965 49.8851 40.9406C53.0976 39.5848 54.506 37.9968 54.506 37.9968C54.506 37.9968 53.5809 38.2243 49.9448 36.3205ZM47.6216 32.6617C47.2119 32.2346 48.312 30.3819 49.7985 29.8062C51.2852 29.2304 53.6233 29.4672 53.6233 29.4672C53.6233 29.4672 53.5083 31.278 51.8053 33.4744C50.1024 35.6706 48.4179 34.9602 48.0449 34.6306C47.864 34.4653 47.8565 34.0883 47.8487 33.6978L47.8471 33.6183C47.9696 33.5375 48.1415 33.4275 48.3678 33.2827C48.5836 33.1446 48.8489 32.9748 49.168 32.7685C50.3003 32.0443 50.9815 31.162 50.9815 31.162C50.9815 31.162 50.3187 31.6217 49.458 32.2114C48.8504 32.6293 48.16 32.9311 47.8011 33.075C47.7735 32.9079 47.7183 32.7639 47.6216 32.6617ZM142.357 30.5166V14.3066H139.397V25.2836L130.537 14.3066H128.079V30.5166H131.039V19.5397L139.898 30.5166H142.357ZM91.1996 26.7647H83.1681L81.5848 30.5166H78.5103L85.7409 14.3066H88.6775L95.9311 30.5166H92.8105L91.1996 26.7647ZM90.2101 24.4013L87.1816 17.3155L84.1761 24.4013H90.2101ZM103.664 30.5166V24.7959L109.951 14.3066H107.014L102.265 22.2049L97.5607 14.3066H94.3711L100.681 24.8424V30.5166H103.664ZM121.084 26.7647H113.052L111.469 30.5166H108.395L115.625 14.3066H118.562L125.815 30.5166H122.695L121.084 26.7647ZM120.094 24.4013L117.066 17.3155L114.06 24.4013H120.094ZM68.8169 14.3066H65.8345V30.5166H77.2166V27.9673H68.8169V14.3066Z" fill="#3F8D68"/>
</g>
<defs>
<clipPath id="clip0_88_23402">
<rect width="144" height="55" fill="white" transform="translate(0 0.000488281)"/>
</clipPath>
</defs>
</svg>
