<svg width="43" height="34" viewBox="0 0 43 34" fill="none" xmlns="http://www.w3.org/2000/svg">
<path fill-rule="evenodd" clip-rule="evenodd" d="M21.7262 3.88266C21.5898 3.78918 21.4101 3.78918 21.2737 3.88266L4.33928 15.4949C4.06598 15.6823 3.69252 15.6126 3.50512 15.3393C3.31772 15.0661 3.38735 14.6926 3.66064 14.5052L20.5951 2.89298C21.1404 2.51907 21.8595 2.51907 22.4048 2.89298L39.3393 14.5052C39.6126 14.6926 39.6822 15.0661 39.4948 15.3393C39.3074 15.6126 38.9339 15.6823 38.6606 15.4949L21.7262 3.88266ZM21.96 13.408C22.4453 13.408 22.8933 13.4774 23.304 13.616C23.7146 13.7547 24.0666 13.952 24.36 14.208C24.6586 14.464 24.8906 14.7734 25.056 15.136C25.2213 15.4987 25.304 15.9014 25.304 16.344C25.304 16.7067 25.256 17.032 25.16 17.32C25.0693 17.6027 24.936 17.8534 24.76 18.072C24.5893 18.2854 24.3813 18.4667 24.136 18.616C23.8906 18.7654 23.616 18.8854 23.312 18.976C24.0586 19.1734 24.6186 19.504 24.992 19.968C25.3706 20.432 25.56 21.0134 25.56 21.712C25.56 22.24 25.4586 22.7147 25.256 23.136C25.0586 23.5574 24.7866 23.9174 24.44 24.216C24.0933 24.5094 23.688 24.736 23.224 24.896C22.7653 25.0507 22.272 25.128 21.744 25.128C21.136 25.128 20.616 25.0534 20.184 24.904C19.752 24.7494 19.3866 24.5387 19.088 24.272C18.7893 24.0054 18.544 23.6907 18.352 23.328C18.16 22.96 17.9973 22.5627 17.864 22.136L18.472 21.88C18.584 21.832 18.696 21.808 18.808 21.808C18.9146 21.808 19.008 21.832 19.088 21.88C19.1733 21.9227 19.2373 21.992 19.28 22.088C19.2906 22.1094 19.3013 22.1334 19.312 22.16C19.3226 22.1814 19.3333 22.2054 19.344 22.232C19.4186 22.3867 19.5093 22.5627 19.616 22.76C19.7226 22.952 19.8666 23.1334 20.048 23.304C20.2293 23.4747 20.4533 23.6187 20.72 23.736C20.992 23.8534 21.328 23.912 21.728 23.912C22.128 23.912 22.4773 23.848 22.776 23.72C23.08 23.5867 23.3306 23.416 23.528 23.208C23.7306 23 23.8826 22.768 23.984 22.512C24.0853 22.256 24.136 22.0027 24.136 21.752C24.136 21.4427 24.0933 21.16 24.008 20.904C23.928 20.648 23.7786 20.4267 23.56 20.24C23.3466 20.0534 23.048 19.9067 22.664 19.8C22.2853 19.6934 21.7973 19.64 21.2 19.64V18.608C21.6853 18.6027 22.0986 18.5494 22.44 18.448C22.7866 18.3467 23.0693 18.208 23.288 18.032C23.5066 17.856 23.664 17.6454 23.76 17.4C23.8613 17.1547 23.912 16.8827 23.912 16.584C23.912 16.2534 23.8586 15.9654 23.752 15.72C23.6506 15.4747 23.5093 15.272 23.328 15.112C23.1466 14.952 22.9306 14.832 22.68 14.752C22.4346 14.672 22.168 14.632 21.88 14.632C21.592 14.632 21.3253 14.6747 21.08 14.76C20.8346 14.8454 20.616 14.9654 20.424 15.12C20.2373 15.2694 20.08 15.4507 19.952 15.664C19.824 15.872 19.728 16.0987 19.664 16.344C19.6213 16.4987 19.5573 16.6107 19.472 16.68C19.3866 16.7494 19.2773 16.784 19.144 16.784H19.056C19.0293 16.7787 18.9973 16.7734 18.96 16.768L18.216 16.64C18.2906 16.1174 18.4346 15.656 18.648 15.256C18.8613 14.8507 19.1306 14.512 19.456 14.24C19.7866 13.968 20.1626 13.7627 20.584 13.624C21.0106 13.48 21.4693 13.408 21.96 13.408ZM10.6 14C10.6 13.6687 10.3313 13.4 9.99996 13.4C9.66859 13.4 9.39996 13.6687 9.39996 14V30C9.39996 30.8837 10.1163 31.6 11 31.6H32C32.8836 31.6 33.6 30.8837 33.6 30V14C33.6 13.6687 33.3313 13.4 33 13.4C32.6686 13.4 32.4 13.6687 32.4 14V30C32.4 30.2209 32.2209 30.4 32 30.4H11C10.779 30.4 10.6 30.2209 10.6 30V14Z" fill="black"/>
</svg>
