<svg width="43" height="34" viewBox="0 0 43 34" fill="none" xmlns="http://www.w3.org/2000/svg">
<path fill-rule="evenodd" clip-rule="evenodd" d="M14.9669 1.32066C14.7174 1.32066 14.4565 1.31404 14.1876 1.30722C13.3284 1.28542 12.3872 1.26154 11.4702 1.44495C10.2063 1.69772 8.95986 2.33479 7.74777 3.7893C7.72249 3.81963 7.70071 3.85172 7.68239 3.88508C7.06926 3.60059 6.37711 3.37976 5.64107 3.29569C3.96088 3.1038 2.10464 3.63423 0.531387 5.60079C0.387305 5.78089 0.359214 6.02764 0.459126 6.23552C0.559038 6.4434 0.769265 6.57561 0.999908 6.57561C1.90991 6.57561 2.44041 6.57622 2.96768 6.62895C3.20505 6.65269 3.44455 6.68735 3.71957 6.73922C2.26757 8.12777 0.598759 10.7245 1.78235 14.2752C1.85909 14.5055 2.06696 14.6668 2.30902 14.684C2.55109 14.7012 2.77968 14.5709 2.88821 14.3538C3.70551 12.7192 4.46922 11.2002 6.53008 9.98878C6.54078 11.7741 6.96753 13.0855 7.64981 14.1317C8.38996 15.2666 9.42538 16.0571 10.3557 16.7674L10.3558 16.7675C10.5739 16.934 10.7863 17.0962 10.9877 17.2573C11.2026 17.4292 11.5069 17.4329 11.7259 17.2663C11.9449 17.0996 12.0224 16.8054 11.914 16.5524C10.8438 14.0551 10.5892 12.5849 10.6433 11.783C10.6612 11.518 10.7112 11.3495 10.7594 11.2463C12.1819 13.0548 14.0049 16.0538 15.1627 19.5887C16.4056 23.3838 16.8647 27.741 15.3062 31.8968C15.2371 32.0811 15.2628 32.2875 15.3749 32.4492C15.487 32.611 15.6713 32.7075 15.868 32.7075H21.2746C21.2753 32.7075 21.2761 32.7075 21.2768 32.7075H24.4284C24.6083 32.7075 24.7787 32.6268 24.8927 32.4876C25.0066 32.3484 25.0521 32.1654 25.0166 31.989C24.5782 29.8117 24.3847 26.1583 25.2515 22.3511C26.0521 18.8348 27.7477 15.2239 30.9526 12.5056C31.1059 14.8317 30.1102 16.836 29.3665 17.7656C29.1755 18.0044 29.1946 18.3485 29.4108 18.5647C29.6269 18.7809 29.9711 18.8 30.2098 18.609C30.5643 18.3254 30.9267 18.0758 31.3105 17.8116L31.3106 17.8115L31.3108 17.8114C31.522 17.666 31.7396 17.5161 31.9659 17.3537C32.5793 16.9135 33.2077 16.412 33.7368 15.7583C34.5556 14.7469 35.0847 13.4376 35.0978 11.5544C36.3846 12.4462 36.8461 13.4799 37.3787 14.6729C37.5268 15.0047 37.6804 15.3487 37.8588 15.7055C37.9673 15.9226 38.1959 16.0529 38.438 16.0357C38.6801 16.0185 38.8879 15.8571 38.9647 15.6269C39.6816 13.4762 39.5727 11.4145 38.9525 9.86405C38.5706 8.90907 37.9649 8.0948 37.2022 7.62072C37.7777 7.43568 38.3491 7.43529 38.9214 7.52564C39.4079 7.60244 39.892 7.74505 40.3859 7.90504C40.4922 7.93949 40.6003 7.97523 40.7094 8.0113C41.0905 8.13725 41.4835 8.26716 41.8543 8.35988C42.0897 8.41875 42.3374 8.33 42.4819 8.13502C42.6264 7.94003 42.6392 7.67721 42.5144 7.46911C41.0422 5.01551 38.8489 4.14209 36.8369 4.08051C35.8502 4.05031 34.8928 4.2148 34.0719 4.48695C32.9398 3.24541 31.6867 2.5553 30.4063 2.29234C29.0275 2.00918 27.6677 2.2314 26.4584 2.71509C26.2306 2.8062 26.0812 3.02683 26.0812 3.27218C26.0812 3.51752 26.2305 3.73815 26.4583 3.82927C27.5762 4.27643 28.1854 4.58908 28.6218 4.92857C28.7407 5.02099 28.8492 5.11729 28.9536 5.22261C27.1004 5.15205 25.7707 5.68692 24.7888 6.4621C23.835 7.21508 23.2318 8.19421 22.8246 8.85529C22.7329 9.0041 22.6511 9.1368 22.5775 9.24717C22.4188 9.48526 22.4503 9.80231 22.6528 10.0045C22.8552 10.2067 23.1723 10.2378 23.4102 10.0788C24.227 9.53282 25.3958 8.9596 26.5724 8.72965C27.5107 8.54626 28.3895 8.59076 29.1107 8.97199C28.849 9.2432 28.4955 9.61481 28.0792 10.0703C27.2028 11.0292 26.0465 12.3621 24.8807 13.9171C23.1728 16.1952 21.3973 19.0109 20.4923 21.8576C18.6884 14.3068 15.5522 9.70088 13.1316 7.48041C13.7766 7.52768 14.4725 7.628 15.1391 7.80565C16.5042 8.16943 17.5896 8.81253 18.0199 9.81635C18.1431 10.1038 18.4665 10.2485 18.7629 10.1486C19.0593 10.0487 19.2293 9.73793 19.1534 9.43449L19.146 9.40464C18.9224 8.50982 18.5524 7.0293 17.43 5.84447C16.434 4.79314 14.9147 4.03889 12.5834 3.98808C12.7223 3.83529 12.8648 3.70254 13.0262 3.57696C13.4627 3.23752 14.0718 2.92492 15.1898 2.47775C15.4568 2.37093 15.6105 2.08963 15.5561 1.8072C15.5017 1.52477 15.2546 1.32066 14.9669 1.32066ZM19.9005 24.922C19.9029 24.9725 19.9117 25.0215 19.926 25.0682C20.2648 27.0318 20.5137 29.1752 20.6428 31.5075H16.7098C18.0505 27.2674 17.5205 22.9323 16.3031 19.2152C15.0083 15.2619 12.9188 11.952 11.3729 10.097C11.2589 9.96019 11.0901 9.8811 10.912 9.8811C10.5451 9.8811 10.174 10.0401 9.89785 10.3762C9.63128 10.7007 9.48323 11.1511 9.44605 11.7023C9.39435 12.4687 9.55002 13.5281 10.0264 14.9751C9.50723 14.5353 9.03951 14.0658 8.65495 13.4761C7.91219 12.3372 7.46581 10.6954 7.90062 7.86904C7.95101 7.54152 7.72635 7.23517 7.39883 7.18478C7.07132 7.1344 6.76496 7.35905 6.71458 7.68657C6.66667 7.99796 6.62849 8.29807 6.59956 8.58751L6.58872 8.5928C4.47776 9.64828 3.38905 10.9784 2.60051 12.3288C2.39873 9.52584 4.31282 7.64195 5.38767 6.92539C5.58528 6.79365 5.68658 6.55776 5.64605 6.32375C5.60552 6.08975 5.43077 5.90167 5.20037 5.84407C4.28965 5.61639 3.69348 5.49555 3.08708 5.43491C2.86841 5.41304 2.65017 5.39923 2.41779 5.39052C3.45451 4.56608 4.52905 4.37649 5.5049 4.48794C6.82863 4.63913 8.02349 5.3546 8.70842 5.97104C8.95473 6.19271 9.3341 6.17274 9.55578 5.92644C9.77745 5.68013 9.75748 5.30076 9.51118 5.07908C9.29319 4.8829 9.03238 4.67772 8.73606 4.47878C9.75313 3.28804 10.7376 2.81522 11.7055 2.62165C11.9496 2.57283 12.1914 2.54127 12.4341 2.52157C12.3847 2.55711 12.3366 2.59314 12.2895 2.62973C11.7017 3.08688 11.3196 3.60671 10.8633 4.29102C10.736 4.48203 10.7288 4.72896 10.8448 4.92705C10.9608 5.12515 11.1797 5.2397 11.4086 5.22209C14.2017 5.00723 15.6974 5.76049 16.5588 6.66975C16.7279 6.84818 16.876 7.03596 17.0067 7.22935C16.5078 6.97552 15.9741 6.78628 15.4481 6.64611C13.9452 6.2456 12.3432 6.1995 11.3165 6.27847C11.0561 6.2985 10.8386 6.48467 10.7786 6.73885C10.7186 6.99303 10.8299 7.25683 11.0538 7.3912C13.3622 8.77619 17.9994 14.097 19.9005 24.922ZM21.1047 24.8415C21.3507 21.4492 23.5664 17.6707 25.8408 14.6369C26.9769 13.1216 28.1065 11.8192 28.965 10.8799C29.3939 10.4105 29.7547 10.0323 30.0144 9.76366L30.0231 9.75469C30.2914 10.1046 30.5297 10.5607 30.7149 11.152C26.9089 14.125 24.9656 18.2017 24.0815 22.0847C23.2616 25.6853 23.3434 29.1542 23.7122 31.5075H21.8454C21.7145 29.0982 21.4575 26.879 21.1047 24.8415ZM32.9397 6.42158C33.1913 6.19517 33.5951 5.95462 34.1017 5.75277C34.1058 5.75121 34.1099 5.7496 34.114 5.74794C34.1162 5.74708 34.1183 5.7462 34.1205 5.7453C34.8521 5.45659 35.7945 5.24917 36.8002 5.27995C37.9801 5.31606 39.2197 5.67888 40.2799 6.61506C39.9078 6.50476 39.5144 6.4044 39.1085 6.34032C37.9147 6.15183 36.6059 6.27845 35.3173 7.30928C35.1184 7.46846 35.0416 7.73596 35.126 7.97641C35.2103 8.21686 35.4373 8.3778 35.6922 8.3778C36.47 8.3778 37.3207 9.01554 37.8384 10.3097C38.1923 11.1945 38.3557 12.3249 38.205 13.5758C37.6312 12.356 36.8556 11.1023 35.0154 10.0989C34.9929 9.90088 34.9657 9.69758 34.9335 9.48876C34.8831 9.16124 34.5768 8.93659 34.2493 8.98697C33.9218 9.03736 33.6971 9.34371 33.7475 9.67123C33.7932 9.96863 33.828 10.2514 33.8525 10.5206C33.8531 10.5298 33.854 10.539 33.855 10.5482C34.0554 12.8019 33.5391 14.0954 32.8041 15.0033C32.4593 15.4292 32.0512 15.7894 31.6008 16.1321C32.0954 14.7762 32.3722 13.078 31.9898 11.2588C31.9882 11.2511 31.9865 11.2435 31.9846 11.2359C31.6691 9.98152 31.1352 9.06059 30.4277 8.43457C29.2405 7.38413 27.7124 7.28414 26.3422 7.55193C25.8632 7.64555 25.391 7.78597 24.9406 7.95499C25.1167 7.76341 25.312 7.57793 25.5324 7.40396C26.453 6.6771 27.851 6.14279 30.1782 6.56593C30.4151 6.609 30.6548 6.50629 30.787 6.30507C30.9192 6.10385 30.9183 5.84309 30.7848 5.64277C30.3286 4.95848 29.9464 4.4386 29.3586 3.98139C29.1 3.78025 28.8083 3.59632 28.4631 3.41374C29.0268 3.34021 29.5983 3.35146 30.1649 3.46781C31.0743 3.65458 32.006 4.11917 32.8983 4.99716C32.5997 5.16436 32.3424 5.34471 32.1369 5.52963C31.8906 5.7513 31.8707 6.13068 32.0923 6.37698C32.314 6.62329 32.6934 6.64326 32.9397 6.42158Z" fill="black"/>
</svg>
