<svg width="30" height="30" viewBox="0 0 30 30" fill="none" xmlns="http://www.w3.org/2000/svg">
<rect y="0.000488281" width="30" height="30" rx="6" fill="url(#paint0_linear_88_23401)"/>
<path fill-rule="evenodd" clip-rule="evenodd" d="M6.79026 14.8419C11.1631 12.9368 14.079 11.6808 15.5379 11.0739C19.7036 9.3413 20.5692 9.04032 21.1334 9.03038C21.2574 9.02819 21.5349 9.05895 21.7146 9.20477C21.8664 9.32791 21.9081 9.49425 21.9281 9.61099C21.9481 9.72774 21.973 9.99369 21.9532 10.2015C21.7274 12.5733 20.7507 18.3292 20.2537 20.9857C20.0435 22.1098 19.6295 22.4867 19.2286 22.5236C18.3576 22.6037 17.6961 21.9479 16.8524 21.3949C15.5322 20.5295 14.7864 19.9907 13.5049 19.1463C12.0239 18.1703 12.984 17.6339 13.828 16.7573C14.0489 16.5279 17.8869 13.037 17.9612 12.7203C17.9704 12.6807 17.9791 12.533 17.8914 12.4551C17.8037 12.3771 17.6742 12.4038 17.5808 12.425C17.4484 12.455 15.3393 13.849 11.2537 16.607C10.6551 17.018 10.1128 17.2183 9.62701 17.2078C9.09143 17.1962 8.06119 16.905 7.29532 16.656C6.35594 16.3507 5.60934 16.1892 5.67436 15.6707C5.70822 15.4005 6.08019 15.1243 6.79026 14.8419Z" fill="white"/>
<defs>
<linearGradient id="paint0_linear_88_23401" x1="15" y1="0.000488281" x2="15" y2="29.778" gradientUnits="userSpaceOnUse">
<stop stop-color="#2AABEE"/>
<stop offset="1" stop-color="#229ED9"/>
</linearGradient>
</defs>
</svg>
