<svg width="1920" height="104" viewBox="0 0 1920 104" fill="none" xmlns="http://www.w3.org/2000/svg">
<path fill-rule="evenodd" clip-rule="evenodd" d="M1920 41.6197L1840 59.7229C1760 77.8262 1600 114.033 1440 100.455C1280 86.8777 1120 23.5164 960 14.4648C800 5.41313 640 50.6712 480 68.7744C320 86.8777 160 77.826 80 73.3002L2.48339e-06 68.7744L7.41111e-06 -0.000179659L80 -0.000172173C160 -0.000164687 320 -0.000149716 480 -0.000134744C640 -0.000119772 800 -0.000104801 960 -8.98293e-05C1120 -7.48578e-05 1280 -5.98862e-05 1440 -4.49147e-05C1600 -2.99431e-05 1760 -1.49716e-05 1840 -7.48578e-06L1920 0L1920 41.6197Z" fill="white"/>
</svg>
