<svg width="768" height="50" viewBox="0 0 768 50" fill="none" xmlns="http://www.w3.org/2000/svg">
<path fill-rule="evenodd" clip-rule="evenodd" d="M3.08652e-06 18.0961L32 12.7964C64 7.49673 128 -3.10264 192 0.872123C256 4.84688 320 23.3958 384 26.0456C448 28.6955 512 15.4462 576 10.1466C640 4.84688 704 7.49673 736 8.82165L768 10.1466L768 49.8942H736C704 49.8942 640 49.8942 576 49.8942C512 49.8942 448 49.8942 384 49.8942C320 49.8942 256 49.8942 192 49.8942C128 49.8942 64 49.8942 32 49.8942L8.5101e-06 49.8942L3.08652e-06 18.0961Z" fill="#F4F4F4"/>
</svg>
