<svg width="1920" height="357" viewBox="0 0 1920 357" fill="none" xmlns="http://www.w3.org/2000/svg">
<path fill-rule="evenodd" clip-rule="evenodd" d="M1920 291.353L1840 310.579C1760 329.804 1600 368.256 1440 353.836C1280 339.417 1120 272.128 960 262.515C800 252.902 640 300.966 480 320.192C320 339.417 160 329.804 80 324.998L2.48339e-06 320.192L2.40523e-05 0.499992L80 0.5C160 0.500008 320 0.499963 480 0.499979C640 0.499995 800 0.49998 960 0.499996C1120 0.500012 1280 0.499967 1440 0.499983C1600 0.499999 1760 0.499984 1840 0.499992L1920 0.5L1920 291.353Z" fill="white"/>
</svg>
